<?xml version="1.0" encoding="utf-8"?>
<!-- Generator: Adobe Illustrator 23.0.1, SVG Export Plug-In . SVG Version: 6.00 Build 0)  -->
<svg version="1.1" id="Warstwa_1" xmlns="http://www.w3.org/2000/svg" xmlns:xlink="http://www.w3.org/1999/xlink" x="0px" y="0px"
	 viewBox="0 0 295.18 202.96" style="enable-background:new 0 0 295.18 202.96;" xml:space="preserve">
<style type="text/css">
	.st0{fill:#E6E7E8;}
	.st1{fill:#F2B41B;}
	.st2{fill:#D73A27;}
	.st3{fill:#ED8022;}
	.st4{fill:#3D65AF;}
	.st5{fill:#894F9E;}
	.st6{fill:#88C440;}
	.st7{fill:#34EA9C;}
</style>
<rect class="st0" width="295.18" height="202.96"/>
<g>
	<rect x="44.77" y="24.75" class="st1" width="40.91" height="40.91"/>
	<rect x="127.14" y="24.75" class="st2" width="40.91" height="40.91"/>
	<rect x="44.77" y="81.31" class="st3" width="40.91" height="40.91"/>
	<rect x="127.14" y="81.31" class="st4" width="40.91" height="40.91"/>
	<rect x="209.51" y="25.32" class="st3" width="40.91" height="40.91"/>
	<rect x="209.51" y="81.31" class="st5" width="40.91" height="40.91"/>
	<rect x="44.77" y="137.3" class="st5" width="40.91" height="40.91"/>
	<rect x="127.14" y="137.3" class="st6" width="40.91" height="40.91"/>
	<rect x="209.51" y="137.3" class="st7" width="40.91" height="40.91"/>
	<rect x="104.11" y="36.92" width="4.59" height="17.71"/>
	<rect x="104.11" y="36.92" transform="matrix(-1.836970e-16 1 -1 -1.836970e-16 152.1762 -60.6329)" width="4.59" height="17.71"/>
	
		<rect x="186.48" y="33.09" transform="matrix(-1.836970e-16 1 -1 -1.836970e-16 230.7255 -146.8276)" width="4.59" height="17.71"/>
	<rect x="186.48" y="39.61" transform="matrix(-1.836970e-16 1 -1 -1.836970e-16 237.237 -140.316)" width="4.59" height="17.71"/>
	<rect x="104.11" y="92.91" width="4.59" height="17.71"/>
	<rect x="104.11" y="92.91" transform="matrix(-1.836970e-16 1 -1 -1.836970e-16 208.1684 -4.6408)" width="4.59" height="17.71"/>
	<rect x="104.11" y="150.42" width="4.59" height="17.71"/>
	<rect x="104.11" y="150.42" transform="matrix(-1.836970e-16 1 -1 -1.836970e-16 265.6801 52.871)" width="4.59" height="17.71"/>
	<rect x="186.48" y="89.65" transform="matrix(-1.836970e-16 1 -1 -1.836970e-16 287.2845 -90.2685)" width="4.59" height="17.71"/>
	<rect x="186.48" y="96.17" transform="matrix(-1.836970e-16 1 -1 -1.836970e-16 293.7961 -83.757)" width="4.59" height="17.71"/>
	
		<rect x="186.48" y="147.17" transform="matrix(-1.836970e-16 1 -1 -1.836970e-16 344.7963 -32.7567)" width="4.59" height="17.71"/>
	
		<rect x="186.48" y="153.68" transform="matrix(-1.836970e-16 1 -1 -1.836970e-16 351.3079 -26.2452)" width="4.59" height="17.71"/>
</g>
</svg>
