<?xml version="1.0" encoding="iso-8859-1"?>
<!-- Generator: Adobe Illustrator 19.0.0, SVG Export Plug-In . SVG Version: 6.00 Build 0)  -->
<svg version="1.1" id="Layer_1" xmlns="http://www.w3.org/2000/svg" xmlns:xlink="http://www.w3.org/1999/xlink" x="0px" y="0px"
	 viewBox="0 0 512 512" style="enable-background:new 0 0 512 512;" xml:space="preserve">
<path style="fill:#FFB547;" d="M511.362,488.258l-13.152-50.134c-2.426-9.249-7.268-17.686-14.029-24.447l-225.369-225.37
	c7.069-16.379,10.993-34.431,10.993-53.404C269.804,60.398,209.407,0,134.902,0S0,60.399,0,134.903
	c0,74.504,60.397,134.902,134.902,134.902c18.973,0,37.026-3.923,53.404-10.993l24.347,24.347l-17.473,65.211
	c-3.53,13.176,8.526,25.233,21.703,21.703l28.739-7.701c9.866-2.644,18.895,6.385,16.251,16.251l-7.701,28.739
	c-3.53,13.176,8.526,25.233,21.703,21.703l28.738-7.701c9.866-2.644,18.895,6.385,16.251,16.251l-7.7,28.739
	c-3.53,13.176,8.526,25.233,21.703,21.703l65.211-17.473l13.598,13.598c6.763,6.761,15.201,11.605,24.451,14.031l50.138,13.148
	C502.264,515.031,515.035,502.259,511.362,488.258z M92.908,127.105c-18.886,0-34.195-15.309-34.195-34.195
	s15.309-34.195,34.195-34.195s34.195,15.309,34.195,34.195C127.103,111.794,111.793,127.105,92.908,127.105z"/>
<path style="opacity:0.1;enable-background:new    ;" d="M505.668,493.954l-50.138-13.148c-9.25-2.426-17.689-7.268-24.451-14.029
	l-13.599-13.598l-65.212,17.474c-13.176,3.53-25.233-8.526-21.703-21.703l7.701-28.739c2.643-9.866-6.385-18.895-16.251-16.251
	l-28.738,7.701c-13.176,3.53-25.233-8.526-21.703-21.702l7.701-28.739c2.643-9.866-6.385-18.895-16.251-16.251l-28.739,7.701
	c-13.176,3.53-25.233-8.526-21.703-21.702l15.991-59.68c0.917-3.424-0.062-7.076-2.568-9.582l-15.66-15.66
	c-2.734-2.734-6.816-3.66-10.432-2.295c-15.729,5.936-32.856,9.023-50.756,8.614c-72.49-1.655-131.141-61.204-131.749-133.71
	C17.131,85.382,28.904,54.87,48.618,31.206C18.911,55.952,0,93.217,0,134.903c0,74.504,60.397,134.902,134.902,134.902
	c18.973,0,37.026-3.923,53.404-10.993l24.347,24.347l-17.473,65.211c-3.53,13.176,8.526,25.233,21.703,21.703l28.739-7.701
	c9.866-2.644,18.895,6.385,16.251,16.251l-7.701,28.739c-3.53,13.176,8.527,25.233,21.703,21.703l28.738-7.701
	c9.866-2.644,18.895,6.385,16.251,16.251l-7.701,28.739c-3.53,13.176,8.527,25.233,21.703,21.703l65.212-17.473l13.598,13.598
	c6.763,6.761,15.201,11.605,24.451,14.031l50.138,13.148c11.862,3.11,22.836-5.581,23.681-16.824
	C509.917,494.688,507.807,494.515,505.668,493.954z"/>
<path style="opacity:0.2;enable-background:new    ;" d="M114.539,202.005c-2.108,0-4.218-0.804-5.828-2.414
	c-3.218-3.218-3.218-8.436,0-11.653l79.226-79.225c3.219-3.218,8.436-3.218,11.654,0c3.218,3.218,3.218,8.436,0,11.653
	l-79.225,79.225C118.757,201.201,116.647,202.005,114.539,202.005z"/>
<path style="opacity:0.2;enable-background:new    ;" d="M157.295,208.556c-2.108,0-4.218-0.804-5.828-2.414
	c-3.218-3.218-3.218-8.436,0-11.654l43.019-43.019c3.219-3.218,8.436-3.218,11.654,0c3.218,3.218,3.218,8.436,0,11.654
	l-43.019,43.019C161.513,207.75,159.403,208.556,157.295,208.556z"/>
<path style="opacity:0.2;enable-background:new    ;" d="M454.671,451.162c-2.11,0-4.218-0.804-5.828-2.414l-187.82-187.822
	c-3.218-3.218-3.218-8.436,0-11.654c3.219-3.218,8.436-3.218,11.654,0l187.82,187.822c3.218,3.218,3.218,8.436,0,11.653
	C458.889,450.357,456.78,451.162,454.671,451.162z"/>
<path style="opacity:0.2;enable-background:new    ;" d="M363.669,410.913c-2.11,0-4.218-0.804-5.828-2.414L254.24,304.897
	c-3.218-3.218-3.218-8.436,0-11.653c3.22-3.219,8.437-3.218,11.654,0l103.602,103.602c3.218,3.218,3.218,8.436,0,11.653
	C367.887,410.109,365.778,410.913,363.669,410.913z"/>
<g>
</g>
<g>
</g>
<g>
</g>
<g>
</g>
<g>
</g>
<g>
</g>
<g>
</g>
<g>
</g>
<g>
</g>
<g>
</g>
<g>
</g>
<g>
</g>
<g>
</g>
<g>
</g>
<g>
</g>
</svg>
