<?xml version="1.0" encoding="utf-8"?>
<!-- Generator: Adobe Illustrator 23.0.1, SVG Export Plug-In . SVG Version: 6.00 Build 0)  -->
<svg version="1.1" id="Warstwa_1" xmlns="http://www.w3.org/2000/svg" xmlns:xlink="http://www.w3.org/1999/xlink" x="0px" y="0px"
	 viewBox="0 0 251.92 362.63" style="enable-background:new 0 0 251.92 362.63;" xml:space="preserve">
<style type="text/css">
	.st0{fill:#26151A;}
	.st1{fill:#2C2716;}
	.st2{fill:#401C33;}
	.st3{fill:#4A2D17;}
	.st4{fill:#493D17;}
	.st5{fill:#51441B;}
	.st6{fill:#382F16;}
	.st7{fill:#6D5A27;}
	.st8{fill:#9A8140;}
	.st9{fill:#9C7F40;}
	.st10{fill:#987836;}
	.st11{fill:#997835;}
</style>
<path class="st0" d="M151.02,27.29c-0.37,0.59-0.74,1.19-1.11,1.78c-19.19,0.07-38.39,0.15-57.58,0.22
	c-0.8-5.4-1.41-10.83-2.46-16.18c-0.95-4.81,1.26-6.66,5.6-7.3c6.21-0.92,12.51-1.4,18.55-3.29c1.01-0.05,2.02-0.1,3.03-0.15
	c2.31-0.02,4.62-0.04,6.92-0.06c2.26,0.09,4.53,0.19,6.79,0.28c2.98,1.13,6.03,1.88,9.25,1.8c0.67,0.05,1.33,0.09,2,0.14
	c0.15,0.07,0.3,0.15,0.46,0.19c10.8,2.97,10.79,2.97,9.49,14.15C151.62,21.68,151.33,24.49,151.02,27.29z"/>
<path class="st1" d="M140,4.39c-3.21,0.08-6.27-0.67-9.25-1.8C134.19,1.33,137.56,0.45,140,4.39z"/>
<path class="st1" d="M123.96,2.32c-2.31,0.02-4.62,0.04-6.92,0.06C119.32-0.75,121.62-0.81,123.96,2.32z"/>
<path class="st0" d="M147.48,3.53c0,0,0.05,0,0.05,0S147.48,3.53,147.48,3.53z"/>
<path class="st2" d="M92.32,29.29c19.19-0.07,38.39-0.14,57.58-0.22c-0.41,13.33-2.14,26.51-4.88,39.56
	c-15.97-0.06-31.93-0.13-47.9-0.19c-1.04-7.35-2.07-14.69-3.11-22.03C93.46,40.7,92.89,35,92.32,29.29z"/>
<path class="st3" d="M150.03,97.37c-0.01,5.34-0.03,10.68-0.04,16.01c0,6.96-0.01,13.92-0.01,20.88c-0.32,1.39-0.65,2.78-0.97,4.17
	c-2.37,0.03-4.74,0.06-7.11,0.1c-3.64-0.22-6.68-1.4-8.89-4.58c-1.64-2.36-3.67-1.76-5.43,0.09c-1.42,1.49-2.21,3.28-2.29,5.36
	c-10.87-1.7-21.35-0.44-31.37,4.23c-1.32-0.75-2.65-1.49-3.97-2.24c1.95-1.56,3.02-3.57,3.08-6.1c0-5.3-0.01-10.61-0.01-15.91
	c0.27-8.32-0.93-16.65-0.08-24.97c-0.08-2.76,0.17-5.58-0.32-8.26c-0.86-4.64,0.77-6.86,5.47-6.85c0,0-0.05,0.04-0.05,0.04
	c0.86,5.71,1.66,11.44,2.6,17.14c0.26,1.56,0.41,3.59,2.55,3.75c1.99,0.15,3.03-1.49,3.31-3.12c1.05-6.27,3.96-11.83,6.37-17.59
	c5.07,0.85,10.13,1.12,15.18-0.11c0.89,5.54,1.73,11.09,2.7,16.62c0.71,4.06,3.87,4.44,7.16,4.52c3.46,0.09,3.91-2.42,4.23-4.97
	c0.68-5.4,1.88-10.74,1.71-16.23l0.31-0.07c6.19-0.15,6.15-0.15,5.99,6.14C150.06,89.41,150.07,93.39,150.03,97.37z"/>
<path class="st0" d="M128.06,79.42c-5.05,1.23-10.11,0.96-15.18,0.11c-4.94-0.06-9.89-0.12-14.84-0.18c0,0,0.05-0.04,0.05-0.04
	c-0.32-3.62-0.65-7.24-0.97-10.85c15.97,0.06,31.93,0.12,47.9,0.19c-0.29,3.56-0.57,7.11-0.86,10.66c0,0-0.31,0.07-0.3,0.07
	C138.6,79.38,133.33,79.4,128.06,79.42z"/>
<path class="st4" d="M141.91,138.53c2.37-0.03,4.74-0.06,7.11-0.1c3.99,3.01,7.97,6.01,11.96,9.02c1.9,2.55,4.29,4.6,6.7,6.65
	c5.69,4.85,11.23,9.86,15.37,16.19c-3.05-0.34-4.87-2.63-7.08-4.37c-10.07-7.92-19.99-16.19-34.42-11.89
	c-2.77,0.83-5.97,0.44-8.96,0.25c-12.82-0.8-25.58-0.43-38.35,0.99c-9.19,1.02-17.35,3.54-24.22,10.32
	c-11.77,11.62-22.4,24.19-32.48,37.24c-9.36,12.11-19.04,24.14-25.93,37.85c-4.81,9.55-4.33,19.87,0.19,29.78
	c0.05,0.65,0.11,1.31,0.16,1.96c-1.38,5.88,0.76,11.33,2.98,16.37c9.94,22.54,25.62,39.49,48.26,50.17
	c13.23,6.24,26.6,7.59,40.7,5.58c5.41,0.28,10.82,0.57,16.23,0.85c0.59,0,1.17,0,1.76,0.01c1.42,0,2.83-0.01,4.25-0.01
	c1.58-0.01,3.17-0.01,4.75-0.02c1.37-0.26,2.75-0.52,4.12-0.77c6.2,2.58,12.68,2.25,19.16,1.84c10.59-0.67,19.95-5.22,29.03-10.05
	c32.16-17.13,50.3-43.41,51.83-80.43c0.38-9.24-2.36-17.28-7.21-24.93c-10.97-17.32-23-33.82-36.57-49.2
	c-2.48-2.81-5.55-5.39-6.25-9.44c2.2,2.02,4.58,3.87,6.56,6.08c11.41,12.72,22.77,25.48,34.03,38.33c2.96,3.38,6.07,6.58,9.45,9.52
	c4.96,5.34,9.13,11.4,14.68,16.21c0.69,1.28,1.37,2.56,2.06,3.84c-2.64,0.34-5.27,0.93-7.92,0.97c-3.97,0.06-5.08,1.93-4.93,5.68
	c0.4,10.1-1.23,20.12-4.6,29.47c-9.01,25-25.14,44.3-48.68,57.12c-3.76,2.05-8.45,2.92-10.89,6.75c-1.99,3.13-4.54,4.04-7.92,4.09
	c-5.78,0.09-11.25,1.57-16.11,4.7c-3.97,2.55-8.22,3.21-12.83,3.28c-13.96,0.2-27.92,0.63-41.88,0.97
	c-7.08-0.54-14.16-1.02-21.23-1.65c-2.73-0.24-5.29-1.01-5.77-4.36c0.14-3.33-0.34-6.2-4.02-7.7c-7.58-3.09-14.54-7.47-21.06-12.25
	c-15.68-11.49-28.89-25.36-36.47-43.6C4.61,282.97,3.11,275.56,1,268.4c-0.33-2.02-0.67-4.04-1-6.06
	c0.61-7.35,3.22-14.14,5.84-20.94c3.82-9.93,7.13-20.22,14.34-28.29c15.39-17.22,31.19-34.07,46.69-51.19
	c4.22-4.66,9.47-7.56,15.36-8.68c5.97-1.13,9.36-4.54,11.72-9.62c10.02-4.67,20.49-5.93,31.36-4.23c1.95,1.49,3.78,3.21,5.9,4.43
	C137.71,147.58,140.66,146.06,141.91,138.53z"/>
<path class="st5" d="M96.01,359.38c13.96-0.34,27.92-0.77,41.88-0.97c4.61-0.06,8.86-0.73,12.83-3.28
	c4.87-3.13,10.33-4.61,16.11-4.7c3.38-0.05,5.93-0.96,7.92-4.09c2.44-3.83,7.13-4.7,10.89-6.75c23.54-12.82,39.67-32.12,48.68-57.12
	c3.37-9.34,5-19.37,4.6-29.47c-0.15-3.75,0.96-5.62,4.93-5.68c2.64-0.04,5.28-0.63,7.92-0.97c0.05,0.69,0.1,1.39,0.16,2.08
	c-4.4,12.96-6.94,26.44-9.47,39.79c-2.21,11.7-7.82,20.13-17.27,26.62c-8.44,5.79-14.35,14.33-22.39,20.6
	c-5.81,4.53-11.99,8.4-18.48,11.82c-4.23,2.23-8.92,3.74-11.34,8.51c-0.86,1.7-2.94,2.23-4.79,2.3c-19.11,0.74-37.91,5.74-57.18,4.3
	C105.9,361.99,100.64,362.21,96.01,359.38z"/>
<path class="st5" d="M1,268.4c2.11,7.15,3.61,14.56,6.45,21.41c7.58,18.25,20.78,32.11,36.47,43.6c6.53,4.78,13.48,9.17,21.06,12.25
	c3.68,1.5,4.16,4.36,4.02,7.7c-15.67-5.57-28.68-14.97-39.98-27.07c-6.14-6.57-12.17-13.23-17.06-20.75
	C4.68,294.32,1.21,281.8,1,268.4z"/>
<path class="st2" d="M128.06,79.42c5.27-0.02,10.54-0.04,15.8-0.06c0.17,5.49-1.03,10.83-1.71,16.23c-0.32,2.55-0.77,5.06-4.23,4.97
	c-3.29-0.08-6.45-0.47-7.16-4.52C129.8,90.5,128.96,84.96,128.06,79.42z"/>
<path class="st6" d="M98.05,79.34c4.95,0.06,9.89,0.12,14.84,0.18c-2.41,5.76-5.32,11.32-6.37,17.59c-0.27,1.63-1.32,3.27-3.31,3.12
	c-2.14-0.17-2.29-2.2-2.55-3.75C99.71,90.78,98.91,85.06,98.05,79.34z"/>
<path class="st5" d="M141.91,138.53c-1.25,7.53-4.2,9.05-10.71,5.29c-2.11-1.22-3.94-2.94-5.9-4.43c0.09-2.08,0.88-3.86,2.3-5.35
	c1.76-1.85,3.79-2.45,5.43-0.09C135.23,137.13,138.27,138.31,141.91,138.53z"/>
<path class="st7" d="M11.79,270.46c-4.52-9.9-5-20.22-0.19-29.78c6.9-13.71,16.57-25.73,25.93-37.85
	c10.08-13.04,20.72-25.61,32.48-37.24c6.87-6.79,15.03-9.3,24.22-10.32c12.77-1.42,25.53-1.79,38.35-0.99
	c2.98,0.19,6.19,0.57,8.96-0.25c14.43-4.3,24.35,3.97,34.42,11.89c2.22,1.74,4.03,4.03,7.08,4.37c0.65,0.69,1.3,1.38,1.94,2.06
	c0.7,4.06,3.77,6.63,6.25,9.44c13.57,15.38,25.6,31.89,36.57,49.2c4.85,7.66,7.59,15.69,7.21,24.93
	c-1.54,37.02-19.67,63.3-51.83,80.43c-9.08,4.84-18.44,9.38-29.03,10.05c-6.47,0.41-12.96,0.74-19.16-1.84
	c2.15-1.11,4.5-1.23,6.83-1.23c21.45,0.04,39.81-8.48,56.74-20.7c8.95-6.46,14.4-16.1,21.07-24.59
	c10.24-13.03,11.47-28.71,12.13-44.44c0.04-0.95-0.46-1.93-0.71-2.89c0-0.33,0.01-0.66,0.01-0.99c0.04-0.49,0.08-0.99,0.11-1.48
	c-0.07-0.23-0.11-0.47-0.12-0.71c-0.36-3.09-1.99-5.6-3.66-8.1c-8.63-12.85-18.43-24.81-27.95-36.99
	c-10.04-12.85-20.65-25.19-31.87-37.02c-1.85-1.95-3.85-3.7-6.63-4.18c-0.25-0.01-0.47-0.09-0.68-0.23
	c-2.28-2.57-5.21-2.38-8.29-2.17c-7.94,0.54-15.81,1.35-23.86,0.8c-10.26-0.7-20.61-0.19-30.92-0.19c-1.86,0-3.65,0.28-5.22,1.39
	c-2.36,0.21-4.72,0.42-7.09,0.63c-0.31-0.16-0.62-0.32-0.93-0.47c-0.29-0.03-0.57-0.01-0.86,0.05c-1.39,0.37-2.55,1.06-3.32,2.32
	c-0.25,0.32-0.51,0.65-0.76,0.97c0,0-0.01,0.01-0.01,0.01c-2.32,0.84-3.66,2.49-4.02,4.93l-0.05,0.08c-0.3,0.32-0.61,0.63-0.91,0.95
	l-0.05,0.04c-2.16,0.69-3.56,2.31-4.99,3.96c-13.43,15.4-25.92,31.56-38.48,47.64c-4.53,5.8-10.29,10.92-12.51,18.35
	c0,0-0.04,0.06-0.04,0.06c-0.31,0.34-0.62,0.67-0.93,1.01c-0.05,0.3-0.15,0.59-0.28,0.87c-0.24,0.35-0.48,0.7-0.72,1.05l-0.06,0.07
	c-0.31,0.32-0.63,0.65-0.94,0.97l-0.02,0.02c-0.33,0.33-0.65,0.67-0.98,1c0,0,0,0,0,0c-0.32,0.35-0.65,0.71-0.97,1.06
	c-0.04,0.6-0.08,1.2-0.12,1.81c-0.39,0.35-0.77,0.69-1.16,1.04c-1.2,3.45-0.5,6.89-0.1,10.37
	C12.06,263.24,13.36,266.84,11.79,270.46z"/>
<path class="st8" d="M11.79,270.46c1.57-3.62,0.27-7.23-0.14-10.82c-0.4-3.47-1.09-6.92,0.1-10.37c0.64,10.83,4.2,21.12,5.86,31.74
	c0.8,5.15,2.83,9.49,6.03,13.39c6.22,7.56,12.57,15.03,18.76,22.61c1.84,2.26,4.09,3.8,6.64,5.1c8.6,4.38,17.17,8.82,25.7,13.35
	c3.15,1.67,6.35,2.59,9.96,2.76c23.96,1.14,47.9,1.12,71.86,0.1c4.09-0.17,7.82-1.12,11.43-3.06c8.06-4.34,16.14-8.64,24.36-12.66
	c3.7-1.81,6.7-4.23,9.23-7.38c4.16-5.18,8.22-10.44,12.55-15.47c5.96-6.92,10.09-14.39,11.31-23.77c1.1-8.51,2.97-17.01,5.61-25.26
	c0.25,0.97,0.75,1.94,0.71,2.9c-0.66,15.74-1.89,31.41-12.13,44.44c-6.67,8.49-12.12,18.13-21.07,24.59
	c-16.93,12.22-35.29,20.74-56.74,20.7c-2.33,0-4.68,0.12-6.83,1.23c-1.37,0.26-2.75,0.52-4.12,0.78c-1.59-1.85-3.17-1.84-4.75,0.02
	c-1.42,0-2.83,0.01-4.25,0.01c-0.58-0.77-1.17-0.77-1.76,0c-5.41-0.28-10.82-0.57-16.23-0.85c-2.15-1.11-4.5-1.02-6.82-1.19
	c-23.19-1.68-43.33-10.69-59.47-27.17c-11.16-11.4-21.2-24.04-24.33-40.54c-0.21-1.12-0.87-2.15-1.32-3.22
	C11.9,271.77,11.84,271.12,11.79,270.46z"/>
<path class="st7" d="M11.95,272.42c0.45,1.07,1.11,2.1,1.32,3.22c3.14,16.5,13.17,29.14,24.33,40.54
	c16.14,16.48,36.28,25.49,59.47,27.17c2.32,0.17,4.67,0.08,6.82,1.19c-14.1,2.01-27.47,0.66-40.7-5.58
	c-22.65-10.68-38.33-27.63-48.26-50.17C12.71,283.75,10.58,278.3,11.95,272.42z"/>
<path class="st7" d="M126.13,345.38c1.58-1.85,3.16-1.86,4.75-0.02C129.3,345.37,127.72,345.38,126.13,345.38z"/>
<path class="st7" d="M120.13,345.39c0.59-0.77,1.18-0.77,1.76,0C121.3,345.39,120.71,345.39,120.13,345.39z"/>
<path class="st9" d="M160.25,161.05c0.21,0.14,0.43,0.21,0.68,0.23c1.36,1.66,2.73,3.32,4.07,4.99
	c21.63,27.02,43.25,54.05,64.87,81.07c-6.77,2.23-13.98,1.46-20.85,3.03c-2.53-1.05-5.21-0.87-7.86-0.99
	c-13.99-0.65-27.79,2.14-41.63,2.64c-33.14,1.21-66.35,0.58-99.53,1.08c-11.12,0.17-22.52-1.04-33.57-3.51
	c-4.11-0.92-8.17-1.41-12.35-0.95c-0.39-0.13-0.78-0.26-1.17-0.4c0.04-0.6,0.08-1.2,0.12-1.81c0.32-0.35,0.65-0.71,0.97-1.06
	c0,0,0,0,0,0c0.33-0.33,0.65-0.67,0.98-1c0,0,0.02-0.02,0.02-0.02c0.31-0.32,0.63-0.65,0.94-0.97c0,0,0.06-0.07,0.06-0.07
	c0.24-0.35,0.48-0.7,0.72-1.05c0.14-0.28,0.23-0.56,0.28-0.87c0.31-0.34,0.62-0.67,0.93-1.01c0,0,0.04-0.06,0.04-0.06
	c0.75-0.64,1.63-1.18,2.24-1.94c13.59-16.88,27.27-33.68,40.64-50.74c4.45-5.68,9.68-10.81,13.11-17.27c0,0,0.05-0.04,0.05-0.04
	c0.3-0.32,0.61-0.63,0.91-0.95c0,0,0.05-0.08,0.05-0.08c1.97-1.13,3.29-2.79,4.02-4.93c0,0,0.01-0.01,0.01-0.01
	c0.25-0.32,0.51-0.65,0.76-0.97c0.77-1.26,1.93-1.95,3.32-2.32c0,0,0.43,0.03,0.43,0.03l0.42-0.09c0.31,0.16,0.62,0.32,0.94,0.47
	c5.41,1.82,10.93,0.87,16.43,0.71c13.48,0.02,26.96,0.05,40.44,0.07c5.13,0.15,10.31,1.07,15.32-0.85
	C158.13,161.31,159.19,161.18,160.25,161.05z"/>
<path class="st10" d="M209.02,250.37c6.87-1.58,14.08-0.81,20.85-3.03c0.39,0.08,0.79,0.15,1.18,0.23c0.01,0.24,0.05,0.48,0.12,0.71
	c-0.04,0.49-0.08,0.99-0.11,1.48c0,0.33-0.01,0.66-0.01,0.99c-2.64,8.24-4.51,16.74-5.61,25.26c-1.21,9.38-5.35,16.85-11.31,23.77
	c-4.33,5.03-8.39,10.29-12.55,15.47c-2.53,3.15-5.53,5.57-9.23,7.38c-8.21,4.03-16.3,8.33-24.36,12.66
	c-3.61,1.94-7.34,2.89-11.43,3.06c-23.96,1.02-47.91,1.04-71.86-0.1c-3.61-0.17-6.81-1.09-9.96-2.76
	c-8.53-4.53-17.1-8.97-25.7-13.35c-2.56-1.3-4.8-2.84-6.64-5.1c-6.19-7.59-12.54-15.05-18.76-22.61c-3.21-3.9-5.23-8.24-6.03-13.39
	c-1.66-10.63-5.22-20.91-5.86-31.74c0.39-0.35,0.77-0.69,1.16-1.04c0.39,0.13,0.78,0.26,1.17,0.39c2.07,11.84,5.04,23.46,9.24,34.71
	c2.23,5.96,6.05,12.18,12.73,11.84c9.12-0.47,17.68,1.32,25.91,3.98c19.69,6.37,39.8,5.61,59.9,4.84
	c9.49-0.37,18.46-3.44,27.04-8.05c15.98-8.58,27.27-22.22,39.34-35.02c4.88-5.18,9.21-10.66,17.4-9.74
	C206.73,251.32,207.89,250.66,209.02,250.37z"/>
<path class="st8" d="M231.05,247.56c-0.39-0.07-0.79-0.15-1.18-0.23c-21.62-27.03-43.25-54.05-64.87-81.07
	c-1.34-1.68-2.71-3.33-4.07-4.99c2.78,0.48,4.78,2.23,6.63,4.18c11.22,11.82,21.83,24.17,31.87,37.02
	c9.52,12.18,19.32,24.14,27.95,36.99C229.07,241.96,230.7,244.47,231.05,247.56z"/>
<path class="st8" d="M73.97,170.37c-3.44,6.46-8.66,11.59-13.11,17.27c-13.37,17.05-27.05,33.86-40.64,50.74
	c-0.61,0.76-1.48,1.3-2.24,1.94c2.23-7.43,7.98-12.55,12.51-18.35c12.56-16.08,25.05-32.25,38.48-47.64
	C70.41,172.68,71.81,171.07,73.97,170.37z"/>
<path class="st8" d="M160.25,161.05c-1.06,0.13-2.12,0.26-3.18,0.39c-5.13-0.17-10.3-0.99-15.32,0.85
	c-13.48-0.02-26.96-0.05-40.44-0.07c-2.93-1.7-6.26-0.64-9.34-1.34c1.57-1.1,3.36-1.39,5.22-1.39c10.31,0,20.65-0.51,30.92,0.19
	c8.05,0.55,15.92-0.25,23.86-0.8C155.04,158.66,157.97,158.48,160.25,161.05z"/>
<path class="st10" d="M91.97,160.87c3.08,0.71,6.41-0.35,9.34,1.34c-5.49,0.16-11.02,1.11-16.42-0.71
	C87.25,161.29,89.61,161.08,91.97,160.87z"/>
<path class="st8" d="M79,164.38c-0.73,2.14-2.04,3.81-4.02,4.93C75.34,166.87,76.68,165.22,79,164.38z"/>
<path class="st8" d="M14.99,244.37c-0.33,0.33-0.65,0.67-0.98,1C14.33,245.04,14.66,244.71,14.99,244.37z"/>
<path class="st8" d="M14,245.37c-0.32,0.35-0.65,0.71-0.97,1.06C13.36,246.08,13.68,245.73,14,245.37z"/>
<path class="st8" d="M79.77,163.4c-0.25,0.32-0.51,0.65-0.76,0.97C79.26,164.05,79.52,163.72,79.77,163.4z"/>
<path class="st8" d="M231.06,249.75c0.04-0.49,0.08-0.99,0.11-1.48C231.13,248.77,231.1,249.26,231.06,249.75z"/>
<path class="st8" d="M83.95,161.03l-0.42,0.09c0,0-0.43-0.03-0.43-0.03C83.37,161.02,83.66,161,83.95,161.03z"/>
<path class="st8" d="M17.94,240.39c-0.31,0.34-0.62,0.67-0.93,1.01C17.32,241.06,17.63,240.72,17.94,240.39z"/>
<path class="st8" d="M16.73,242.26c-0.24,0.35-0.48,0.7-0.72,1.05C16.25,242.96,16.49,242.61,16.73,242.26z"/>
<path class="st8" d="M74.93,169.39c-0.31,0.32-0.61,0.63-0.91,0.95C74.32,170.02,74.63,169.7,74.93,169.39z"/>
<path class="st8" d="M15.94,243.38c-0.31,0.32-0.63,0.65-0.94,0.97C15.32,244.03,15.63,243.71,15.94,243.38z"/>
<path class="st11" d="M209.02,250.37c-1.12,0.29-2.29,0.95-3.37,0.82c-8.19-0.93-12.52,4.56-17.4,9.74
	c-12.08,12.8-23.37,26.43-39.34,35.02c-8.58,4.61-17.55,7.69-27.04,8.05c-20.1,0.77-40.21,1.53-59.9-4.84
	c-8.23-2.66-16.79-4.45-25.91-3.98c-6.68,0.34-10.51-5.87-12.73-11.84c-4.2-11.25-7.17-22.87-9.24-34.71
	c4.18-0.45,8.24,0.03,12.35,0.96c11.04,2.47,22.45,3.68,33.57,3.51c33.18-0.5,66.38,0.13,99.53-1.08
	c13.84-0.51,27.64-3.29,41.63-2.64C203.81,249.5,206.49,249.32,209.02,250.37z"/>
<path class="st10" d="M141.75,162.29c5.02-1.84,10.19-1.02,15.32-0.85C152.05,163.36,146.88,162.43,141.75,162.29z"/>
</svg>
