<?xml version="1.0" encoding="utf-8"?>
<!-- Generator: Adobe Illustrator 23.0.1, SVG Export Plug-In . SVG Version: 6.00 Build 0)  -->
<svg version="1.1" xmlns="http://www.w3.org/2000/svg" xmlns:xlink="http://www.w3.org/1999/xlink" x="0px" y="0px"
	 viewBox="0 0 403.75 293.71" style="enable-background:new 0 0 403.75 293.71;" xml:space="preserve">
<style type="text/css">
	.st0{fill:#815F52;}
	.st1{fill:#5C403A;}
	.st2{fill:#644F4B;}
	.st3{fill:#896554;}
	.st4{fill:#8A523A;}
	.st5{fill:#C1804B;}
	.st6{fill:#B57B53;}
	.st7{fill:#8F6755;}
	.st8{fill:#9E6F53;}
	.st9{fill:#AA7652;}
	.st10{fill:#986C54;}
	.st11{fill:#72554E;}
	.st12{fill:#D0894E;}
	.st13{opacity:0.38;}
	.st14{fill:none;stroke:#000000;stroke-miterlimit:10;}
	.st15{opacity:0.44;fill:none;stroke:#000000;stroke-width:0.75;stroke-miterlimit:10;}
</style>
<g id="Warstwa_1">
	<path class="st0" d="M354.77,31.3c13.28,3.05,26.55,6.1,39.83,9.15c0.1,0.55,0.2,1.1,0.29,1.64c-0.71,11.29-1.5,22.58-2.11,33.88
		c-1.46,26.74-2.72,53.5-4.28,80.24c-2.16,37.03-4.54,74.06-6.78,111.09c-0.43,7.11-1.6,8.24-8.53,7.12
		c-25.14-4.09-50.28-8.24-75.41-12.36c5.19-3.47,11.02-1.56,16.54-1.8c18.21-0.8,30.91-9,38.45-25.98
		c6.57-14.8,9.25-30.52,12.73-46.05c4.84-21.59,7.59-43.57,10.77-65.45c2.7-18.6,4.93-37.32,5.3-56.11
		c0.4-20.45-5.28-26.25-19.84-30.77C359.03,35.05,356.43,33.83,354.77,31.3z"/>
	<path class="st1" d="M277.77,277.06c-14.63-3.35-29.57-4.88-44.33-7.44c-14.27-2.48-28.56-5.07-42.85-7.16
		c-14.28-2.08-28.74-3.38-43.1-5.23c-46.75-6.02-93.49-12.13-140.23-18.26c-1.95-0.26-3.82-1.07-5.73-1.63c1.99,0.08,4,0,5.97,0.26
		c56.05,7.32,112.09,14.65,168.13,22.03c13.49,1.78,13.48,1.86,15.18-11.44c2.31,0.48,4.63,0.53,6.96,0.16
		c1,0.34,2.01,0.68,3.01,1.02c4.68,3.36,10.26,3.66,15.64,4.54c44.7,7.32,89.42,14.6,134.13,21.87c9.87,1.61,19.75,3.1,29.6,4.77
		c4.48,0.76,7.12-0.75,7.73-5.38c0.2-1.49,0.57-2.96,0.65-4.45c0.75-13.79,1.49-27.58,2.17-41.38c1.09-22.1,2.08-44.21,3.2-66.32
		c1.24-24.43,2.54-48.85,3.89-73.27c0.58-10.63,1.35-21.26,2-31.89c0.17-2.75,1.1-4.85,3.95-5.68c-1.25,24.92-2.51,49.83-3.75,74.75
		c-0.75,15.12-1.46,30.24-2.22,45.36c-1.6,31.73-3.21,63.45-4.84,95.18c-0.34,6.64,0.02,13.31-0.98,19.94
		c-0.96,6.37-1.48,6.93-8.07,5.89c-22.04-3.46-44.05-7.09-66.11-10.41C304.45,280.88,291.23,278.17,277.77,277.06z"/>
	<path class="st2" d="M403.75,52.19c-2.85,0.83-3.79,2.93-3.95,5.68c-0.64,10.63-1.41,21.25-2,31.89
		c-1.34,24.42-2.65,48.85-3.89,73.27c-1.12,22.1-2.11,44.21-3.2,66.32c-0.68,13.79-1.42,27.59-2.17,41.38
		c-0.08,1.49-0.45,2.96-0.65,4.45c-0.61,4.63-3.25,6.14-7.73,5.38c-9.85-1.67-19.74-3.17-29.6-4.77
		c-44.71-7.28-89.43-14.55-134.13-21.87c-5.38-0.88-10.96-1.18-15.64-4.54c1.33-0.12,2.65-0.23,3.98-0.35
		c2.65,0.46,5.23,1.48,8,0.98c4.67,0.67,9.33,1.34,14,2.01c3.34,0.34,6.68,0.69,10.03,1.03c11.27,1.45,22.54,2.9,33.81,4.36
		c9.06,1.55,18.12,3.1,27.18,4.65c25.14,4.13,50.27,8.28,75.41,12.36c6.93,1.13,8.1,0,8.53-7.12c2.24-37.03,4.62-74.05,6.78-111.09
		c1.56-26.74,2.82-53.49,4.28-80.24c0.62-11.3,1.4-22.58,2.11-33.88c2.85,0.34,4.58,1.87,4.85,4.78
		C399.99,49.5,401.6,51.03,403.75,52.19z"/>
	<path class="st3" d="M297.78,262.05c-9.06-1.55-18.12-3.1-27.17-4.65c1.7-0.65,3.36-1.77,5.09-1.89
		c13.38-0.91,20.89-9.68,26.21-20.44c3.22-6.52,5.85-13.36,9.12-19.92c2.13-4.29,4.44-8.53,5.89-13.19
		c4.24-13.64,9.1-27.04,12.44-41.01c6.92-28.93,14.46-57.68,16.25-87.55c1.22-20.39-5.59-36.54-24.33-46.45
		c-1.79-0.95-3.47-1.98-4.51-3.8c4.13-0.15,8.01,1.22,12,1.93c8.67,2.07,17.33,4.15,26,6.22c1.66,2.53,4.26,3.75,6.95,4.59
		c14.56,4.52,20.24,10.31,19.84,30.77c-0.37,18.79-2.59,37.5-5.3,56.11c-3.18,21.88-5.94,43.86-10.77,65.45
		c-3.48,15.53-6.16,31.26-12.73,46.05c-7.54,16.99-20.23,25.18-38.45,25.98C308.79,260.49,302.97,258.58,297.78,262.05z"/>
	<path class="st4" d="M0.06,234.21c0.88-3.07,1.76-6.14,2.64-9.21c4.24,0.8,8.14,2.71,12.53,3.25
		c38.86,4.74,77.67,9.84,116.54,14.46c19.65,2.34,39.17,6.41,59.13,5.43l-0.08,0.06c-1.7,13.3-1.69,13.22-15.19,11.44
		C119.6,252.24,63.56,244.91,7.51,237.6c-1.97-0.26-3.98-0.18-5.97-0.26C0.44,236.58-0.2,235.61,0.06,234.21z"/>
	<path class="st5" d="M233.73,15.49c1.68-0.15,3.35-0.29,5.03-0.44c2.02,9.31,0.76,18.59-0.65,27.78
		c-9.4,61.15-19.73,122.14-31.94,182.8c-1.61,8.01-3.44,15.94-8.39,22.72c-2.33,0.36-4.65,0.31-6.96-0.16c0,0,0.08-0.06,0.08-0.06
		c0.95-6.07,1.85-12.15,2.87-18.21c8.27-49.54,16.59-99.08,24.84-148.62c3.56-21.34,7.01-42.69,10.51-64.04
		C230.8,17.04,232.36,16.51,233.73,15.49z"/>
	<path class="st6" d="M197.78,248.35c4.95-6.78,6.78-14.7,8.39-22.72c12.21-60.66,22.54-121.65,31.94-182.8
		c1.41-9.19,2.66-18.47,0.65-27.78c1.82-1.42,4.01-0.6,6-0.99c0.2,4.65,2,9.09,1.66,13.83c-1.05,14.61-2.87,29.13-5.24,43.57
		c-7.6,46.45-15.91,92.78-25.26,138.91c-2.66,13.14-4.28,26.68-11.16,38.65c-1.33,0.12-2.65,0.23-3.98,0.35
		C199.79,249.03,198.78,248.69,197.78,248.35z"/>
	<path class="st7" d="M280.79,16.08c12.13,1.69,24.24,3.42,35.98,7.07c1.04,1.82,2.72,2.86,4.51,3.8
		c18.74,9.91,25.55,26.06,24.33,46.45c-1.79,29.86-9.33,58.62-16.25,87.55c-3.34,13.97-8.21,27.37-12.44,41.01
		c-1.45,4.66-3.76,8.91-5.89,13.19c-3.26,6.56-5.9,13.4-9.12,19.92c-5.31,10.75-12.83,19.52-26.21,20.44
		c-1.73,0.12-3.4,1.23-5.09,1.89c-11.27-1.45-22.54-2.9-33.82-4.35c1.19-1.49,2.81-2.35,4.57-2.89c7.04-2.17,11.44-7.12,14.4-13.6
		c2.07-4.54,4.08-9.1,5.46-13.92c5.38-18.71,9.68-37.68,13.12-56.84c6.9-38.43,15.11-76.69,16.59-115.9
		c0.45-11.84,1.16-23.83-9.44-32.51C281.14,17.1,281.02,16.52,280.79,16.08z"/>
	<path class="st8" d="M255.75,14.36c3.34-0.01,6.68-0.01,10.02-0.02c0.73,0.9,1.27,2.13,2.21,2.64c7.34,4,9.7,10.78,9.94,18.41
		c0.32,10.46,0.02,20.92-1.37,31.35c-2.02,15.18-4.34,30.31-6.93,45.4c-5.07,29.53-10.62,58.98-18,88.02
		c-3.51,13.82-7.52,27.57-15.15,40.01c-2.76,4.51-7.66,6.94-9.69,11.84c-4.67-0.67-9.33-1.34-14-2.01
		c7.23-6.86,12.8-14.72,15.09-24.64c1.39-6,3.25-11.9,4.5-17.93c11.08-53.52,20.29-107.37,26.93-161.63
		C260.57,35.29,262.89,24.16,255.75,14.36z"/>
	<path class="st9" d="M255.75,14.36c7.14,9.79,4.82,20.93,3.53,31.44c-6.64,54.26-15.85,108.11-26.93,161.63
		c-1.25,6.03-3.12,11.93-4.5,17.93c-2.29,9.92-7.85,17.77-15.09,24.64c-2.77,0.5-5.35-0.52-8-0.98c6.88-11.96,8.5-25.51,11.16-38.65
		c9.35-46.13,17.66-92.46,25.26-138.91c2.36-14.44,4.19-28.96,5.24-43.57c0.34-4.74-1.46-9.18-1.66-13.83
		C248.48,11.97,252.07,14.69,255.75,14.36z"/>
	<path class="st10" d="M226.76,252.02c2.03-4.89,6.93-7.33,9.69-11.84c7.62-12.45,11.63-26.19,15.15-40.01
		c7.38-29.04,12.93-58.48,18-88.02c2.59-15.09,4.91-30.22,6.93-45.4c1.39-10.43,1.69-20.88,1.37-31.35
		c-0.24-7.63-2.6-14.41-9.94-18.41c-0.94-0.51-1.48-1.75-2.21-2.64c5.01,0.58,10.01,1.16,15.02,1.73c0.23,0.44,0.35,1.02,0.7,1.31
		c10.6,8.68,9.89,20.67,9.44,32.51c-1.48,39.21-9.68,77.46-16.59,115.9c-3.44,19.16-7.75,38.12-13.12,56.84
		c-1.38,4.82-3.39,9.38-5.46,13.92c-2.96,6.49-7.35,11.43-14.4,13.6c-1.76,0.54-3.39,1.4-4.57,2.89
		C233.45,252.7,230.11,252.36,226.76,252.02z"/>
	<path class="st6" d="M69.73,0.27c1.68-0.09,3.35-0.18,5.03-0.27c1.54,1.85,3.69,2.05,5.87,2.29c7.95,0.87,15.93,1.49,23.82,2.74
		c21.18,3.34,26.87,11.43,23.58,32.68c-3,19.31-8.06,38.14-14.24,56.59c-9.92,29.6-22.16,58.12-43.27,81.89
		c-0.98,1.11-1.58,2.55-2.48,3.74c-10.51,13.85-23.76,24.1-41.07,26.95c-9.34,1.54-14.46,6.92-16.23,16.08
		c-1.31-0.23-2.63-0.47-3.94-0.7c6.79-15.08,11.09-31.03,15.75-46.8c14.62-49.47,28.78-99.08,42.91-148.7
		C67.9,18.15,70.47,9.44,69.73,0.27z"/>
	<path class="st9" d="M10.73,222.96c1.77-9.16,6.89-14.55,16.23-16.08c17.31-2.85,30.57-13.11,41.07-26.95
		c0.9-1.19,1.5-2.63,2.48-3.74c21.11-23.76,33.35-52.28,43.27-81.89c6.18-18.45,11.24-37.28,14.24-56.59
		c3.3-21.25-2.39-29.34-23.58-32.68c-7.89-1.24-15.87-1.87-23.82-2.74C78.45,2.05,76.3,1.85,74.76,0
		c16.39,0.2,32.78,0.35,49.17,0.61c8.28,0.13,16.56,0.46,24.84,0.7c1.22,0.85,2.32,2.04,3.67,2.49
		c10.41,3.43,13.29,10.3,12.83,22.11c-0.48,12.19-2.86,24.14-5.18,36.06c-6.24,31.92-14.79,63.27-24.75,94.2
		c-5.9,18.34-11.17,36.98-21.71,53.54c-6.83,10.73-15.27,18.38-28.54,19.24c-2.48,0.16-5.01,0.31-7.23,1.68
		C55.47,228.07,33.1,225.52,10.73,222.96z"/>
	<path class="st8" d="M77.84,230.63c2.22-1.37,4.75-1.52,7.23-1.68c13.28-0.86,21.71-8.51,28.54-19.24
		c10.55-16.56,15.81-35.2,21.71-53.54c9.96-30.93,18.51-62.28,24.75-94.2c2.33-11.92,4.71-23.88,5.18-36.06
		c0.46-11.81-2.42-18.68-12.83-22.11c-1.35-0.44-2.45-1.64-3.67-2.49c12.06,0.31,24.04,1.5,36.01,2.95
		c5.97,6.25,6.45,13.63,5.36,21.82c-1.52,11.4-3.41,22.72-5.55,34.01c-9.67,51.05-19.91,101.97-34.51,151.9
		c-2.84,9.73-6.22,19.13-16.63,23.59c-0.7,0.3-1.14,1.18-1.7,1.79C113.73,235.42,95.71,233.61,77.84,230.63z"/>
	<path class="st11" d="M77.84,230.63c17.88,2.98,35.9,4.79,53.9,6.73c4.55,1.31,9.24,1.7,13.94,2.02c5.95,1.55,12,2.41,18.12,2.89
		c1.61,0.4,3.21,0.88,4.84,1.2c7.56,1.46,7.87,1.4,9.51-5.99c3.25-14.63,6.59-29.26,9.34-43.99c7.26-38.97,14.53-77.94,21.2-117.01
		c3.64-21.32,7.64-42.63,9.1-64.28c2.92,0.98,5.84,1.96,8.77,2.94c0.86,0.71,1.72,1.42,2.58,2.13c-3.5,21.35-6.96,42.7-10.51,64.04
		c-8.26,49.55-16.57,99.08-24.84,148.62c-1.01,6.06-1.91,12.14-2.87,18.21c-19.96,0.98-39.48-3.09-59.13-5.43
		c-38.87-4.62-77.68-9.72-116.54-14.46c-4.39-0.53-8.28-2.45-12.53-3.25c0.01-0.67,0.02-1.34,0.03-2c1-0.3,2.01-0.59,3.01-0.89
		c0.35,0.05,0.7,0.1,1.05,0.15c1.31,0.23,2.63,0.47,3.94,0.7C33.1,225.52,55.47,228.07,77.84,230.63z"/>
	<path class="st7" d="M163.8,242.27c-6.12-0.47-12.17-1.34-18.12-2.89c6.85-5.84,9.18-14.06,11.59-22.21
		c10.25-34.66,17.03-70.12,24.51-105.43c5.59-26.36,10.72-52.81,14.42-79.51c1.25-9,3.11-18.22-2.37-26.69
		c5.2,0.36,10.07,2.03,14.98,3.6c0.22,3.48,0.88,7,0.59,10.44c-1.46,16.93-4.04,33.73-7.14,50.43
		c-6.39,34.38-12.72,68.77-19.75,103.02C177.7,196.46,174.24,220.33,163.8,242.27z"/>
	<path class="st0" d="M163.8,242.27c10.44-21.94,13.91-45.81,18.71-69.24c7.02-34.25,13.36-68.64,19.75-103.02
		c3.1-16.69,5.67-33.49,7.14-50.43c0.3-3.44-0.37-6.96-0.59-10.44c3.29,0.13,6.16,1.51,8.98,3.05c-1.46,21.65-5.46,42.96-9.1,64.28
		c-6.67,39.07-13.93,78.05-21.2,117.01c-2.75,14.73-6.09,29.35-9.34,43.99c-1.64,7.39-1.96,7.45-9.51,5.99
		C167.01,243.15,165.41,242.67,163.8,242.27z"/>
	<path class="st10" d="M193.82,5.54c5.48,8.48,3.62,17.69,2.37,26.69c-3.69,26.7-8.83,53.15-14.42,79.51
		c-7.49,35.3-14.27,70.77-24.51,105.43c-2.41,8.15-4.73,16.37-11.59,22.21c-4.7-0.33-9.39-0.71-13.94-2.02
		c0.56-0.61,1.01-1.49,1.7-1.79c10.41-4.45,13.79-13.86,16.63-23.59c14.6-49.93,24.85-100.85,34.51-151.9
		c2.14-11.28,4.03-22.61,5.55-34.01c1.09-8.19,0.61-15.56-5.36-21.82C187.79,4.69,190.81,5.12,193.82,5.54z"/>
	<path class="st12" d="M5.74,222.11c-1,0.3-2.01,0.59-3.01,0.89c0.44-7.83,3.43-15.06,5.48-22.48
		c10.06-36.48,20.37-72.89,30.61-109.32C46.79,62.83,54.79,34.46,62.8,6.1c0.62-2.19,0.84-4.76,3.94-5.03
		c0.65,2.15,0.36,4.26-0.05,6.42c-1.7,8.85-4.43,17.42-6.9,26.06C54.27,52.94,48.7,72.31,43.18,91.69
		c-6.57,23.06-13.37,46.07-19.54,69.24c-2.53,9.51-8.03,18-9.12,27.91c-0.72,6.5-2.46,12.73-4.47,18.93
		C8.53,212.52,7.18,217.33,5.74,222.11z"/>
	<path class="st5" d="M5.74,222.11c1.43-4.78,2.78-9.59,4.32-14.34c2-6.19,3.75-12.42,4.47-18.93c1.09-9.91,6.59-18.4,9.12-27.91
		c6.16-23.17,12.97-46.17,19.54-69.24c5.52-19.38,11.09-38.76,16.61-58.14c2.46-8.64,5.2-17.22,6.9-26.06
		c0.41-2.16,0.7-4.27,0.05-6.42c0.79-1.04,1.92-0.79,2.98-0.8c0.74,9.18-1.83,17.88-4.28,26.48
		c-14.13,49.62-28.28,99.23-42.91,148.7c-4.66,15.77-8.96,31.72-15.75,46.8C6.44,222.21,6.09,222.16,5.74,222.11z"/>
	<path class="st4" d="M229.13,17.26c-0.86-0.71-1.72-1.42-2.58-2.13c2.45-1.1,4.85-1.09,7.18,0.35
		C232.36,16.51,230.8,17.04,229.13,17.26z"/>
	<g class="st13">
		<path class="st14" d="M71.09,93.34c1.06-4.59,2.73-8.94,5.21-12.97c0.52-0.84,1.32-1.06,2.16-1.28c3.67-0.96,3.7-0.97,3.25-4.68
			c-0.15-1.21,0.11-2.16,0.9-3.11c4.63-5.58,10.26-9.83,16.58-13.36c4.97-2.77,10.27-4.54,15.72-5.66
			c5.58-1.14,11.34-1.63,17.07-0.62c0.89,0.16,1.84,0.01,2.66,0.51c-0.85,3.99-1.71,7.98-2.56,11.97
			c-5.06-0.85-10.14-0.62-15.11,0.43c-4.14,0.88-8.13,2.3-11.92,4.33c-6.44,3.45-11.6,8.25-15.84,14.12
			c-2.54,4.03-4.92,8.13-5.93,12.87C79.22,95.05,75.16,94.19,71.09,93.34z"/>
		<path class="st14" d="M76.05,135.05c-1.97-2.98-3.25-6.24-4.37-9.63c-1.78-5.41-2.43-10.96-2.75-16.59
			c-0.18-3.26,0.42-6.46,0.9-9.67c4.07,0.86,8.14,1.71,12.21,2.57c-0.65,3.26-0.71,6.52-0.44,9.83c0.27,3.32,0.91,6.51,2.33,9.54
			c0.39,0.83,0.78,1.65,1.61,2.15c1.4,2.74,2.68,5.54,4.3,8.17c-0.07,0.81,0.18,1.53,0.56,2.23c3,5.5,7.62,9.34,12.85,12.57
			c1.32,0.82,2.87,1.26,4,2.39c-1.73-0.17-3.1-1.32-4.73-1.76c-5.1-1.36-9.14-4.68-13.48-7.41c-1.27-0.8-2.48-1.56-3.96-1.79
			c-0.59-0.09-1.1-0.31-1.43-0.8c-0.7-1.06-1.79-1.45-2.92-1.82c-0.99-0.33-1.99-0.63-2.95-1.03
			C76.29,133.4,76.29,133.38,76.05,135.05z"/>
		<path class="st14" d="M174.71,79.09c3.26,5.65,5.8,11.65,6.96,18.04c0.95,5.29,1.57,10.71,0.68,16.13
			c-0.2,1.19-0.15,2.42-0.52,3.59c-3.98-0.85-7.96-1.69-11.94-2.54c0-0.35-0.05-0.7,0.02-1.04c0.82-4.2,0.26-8.38-0.19-12.55
			c-0.17-1.59-0.52-3.16-1.26-4.61c-0.3-1.17-0.49-2.39-0.93-3.51c-1.88-4.78-4.3-9.26-7.72-13.14c-0.34-0.39-0.59-0.85-0.88-1.28
			c0.67-0.63,1.31-0.56,1.92,0.07c0.74,0.77,1.59,0.79,2.61,0.67c1.52-0.17,3.07-0.18,4.55,0.47c1.15,0.5,2.3,0.77,3.62,0.31
			C172.59,79.38,173.56,78.67,174.71,79.09z"/>
		<path class="st14" d="M159.45,153.61c-3.44,3.32-7.8,5.2-12.06,7c-5.75,2.42-11.83,3.82-18.15,4.17
			c-3.45,0.19-6.83,0.01-10.23-0.35c-1.5-0.16-2.77-0.59-3.65-1.89c-0.26-0.39-0.67-0.67-1.02-1c0.83-3.54,1.83-7.04,2.27-10.65
			c3.21,1.17,6.54,1.69,9.93,1.57c6.15-0.21,12.08-1.47,17.73-3.95c0.61,0.99,1.26,1.96,1.81,2.98c0.69,1.27,1.72,1.64,3.04,1.29
			c1.54-0.4,3.06-0.89,4.6-1.31C156.75,150.65,157.73,151.02,159.45,153.61z"/>
		<path class="st14" d="M174.71,79.09c-1.15-0.42-2.12,0.29-3.1,0.62c-1.32,0.46-2.47,0.19-3.62-0.31
			c-1.48-0.64-3.03-0.63-4.55-0.47c-1.02,0.11-1.87,0.09-2.61-0.67c-0.61-0.64-1.26-0.7-1.92-0.07c-2.47-2.49-5.04-4.91-7.95-6.82
			c-4-2.63-8.27-4.87-13.01-5.99c0.85-4.05,2.13-7.99,2.83-12.07c8.04,2.13,15.29,5.77,21.55,11.3c0.6,0.53,0.92,1.13,0.95,1.91
			c0.05,1.04,0.15,2.08,0.13,3.12c-0.02,1.22,0.42,2.02,1.72,1.83c4.78-0.68,6.56,2.96,8.75,6
			C174.24,77.96,174.44,78.55,174.71,79.09z"/>
		<path class="st14" d="M76.05,135.05c0.24-1.68,0.24-1.65,1.72-1.04c0.96,0.4,1.96,0.7,2.95,1.03c1.12,0.37,2.22,0.76,2.92,1.82
			c0.33,0.5,0.84,0.71,1.43,0.8c1.49,0.23,2.69,0.99,3.96,1.79c4.34,2.73,8.37,6.06,13.48,7.41c1.63,0.43,3,1.58,4.73,1.76
			c0.25,0.06,0.51,0.12,0.76,0.17c0.13,0.23,0.3,0.26,0.51,0.11c1.73,0.63,3.46,1.26,5.19,1.9c-0.85,3.99-1.7,7.98-2.54,11.97
			c-4.79-0.99-9.15-3.01-13.45-5.32c-4.73-2.53-8.83-5.87-12.51-9.61c-3.37-3.42-6.56-7.15-8.68-11.59
			C76.33,135.87,76.2,135.45,76.05,135.05z"/>
		<path class="st14" d="M159.45,153.61c-1.71-2.59-2.69-2.96-5.72-2.14c-1.54,0.42-3.06,0.91-4.6,1.31
			c-1.32,0.35-2.35-0.03-3.04-1.29c-0.55-1.02-1.2-1.99-1.81-2.98c2.56-1.67,5.47-2.72,7.89-4.68c2.89-2.34,5.69-4.75,8.04-7.65
			c1.11,0.83,1.68,2.22,2.89,2.93c2.18,1.29,4.38,1.22,6.62,0.02c1.18-0.63,2.42-1.46,3.87-0.63c-0.2,0.67-0.48,1.32-0.91,1.86
			c-3.76,4.7-7.47,9.45-12.54,12.87C159.91,153.37,159.67,153.48,159.45,153.61z"/>
		<path class="st14" d="M173.58,138.49c-1.46-0.83-2.69,0-3.87,0.63c-2.24,1.2-4.44,1.27-6.62-0.02c-1.21-0.71-1.78-2.1-2.89-2.93
			c2.85-3.22,4.68-7.06,6.56-10.86c0.63-1.73,1.26-3.45,1.89-5.18c3.92,0.82,7.85,1.65,11.77,2.47c0.19,1.23-0.5,2.25-0.77,3.38
			C178.56,130.61,176.05,134.54,173.58,138.49z"/>
		<path class="st14" d="M140.79,53.31c-0.69,4.08-1.97,8.03-2.83,12.07c-0.97-0.03-1.94-0.06-2.91-0.08
			c0.52-3.6,1.2-7.17,2.01-10.72C138.34,54.28,139.43,53.39,140.79,53.31z"/>
		<path class="st14" d="M71.09,93.34c4.06,0.85,8.13,1.71,12.19,2.56c-0.13,1.03-0.26,2.07-0.39,3.1
			c-3.54-0.77-7.08-1.54-10.61-2.31C71.96,95.55,71.21,94.56,71.09,93.34z"/>
		<path class="st14" d="M169.89,114.32c3.98,0.85,7.96,1.69,11.95,2.54c-0.69,1.05-1.84,1.64-2.64,2.59
			c-3.48-0.74-6.96-1.47-10.45-2.21C168.72,116.1,169.33,115.22,169.89,114.32z"/>
		<path class="st14" d="M111.16,162.78c0.85-3.99,1.7-7.98,2.54-11.97c0.71-0.03,1.43-0.06,2.14-0.09c0.26,0.06,0.51,0.11,0.77,0.17
			c-0.44,3.62-1.45,7.12-2.27,10.65C113.24,161.84,112.31,162.59,111.16,162.78z"/>
		<path class="st14" d="M137.06,54.58c-0.81,3.55-1.49,7.12-2.01,10.72c-0.99-0.38-1.98-0.77-2.96-1.15
			c0.85-3.99,1.71-7.98,2.56-11.97C135.67,52.75,136.36,53.68,137.06,54.58z"/>
		<path class="st14" d="M72.28,96.69c3.54,0.77,7.08,1.54,10.61,2.31c-0.28,0.91-0.57,1.82-0.85,2.73
			c-4.07-0.86-8.14-1.71-12.21-2.57C70.65,98.34,71.46,97.51,72.28,96.69z"/>
		<path class="st14" d="M168.75,117.23c3.48,0.74,6.96,1.47,10.45,2.21c0.49,1.03,1.15,1.98,1.23,3.17
			c-3.92-0.82-7.85-1.65-11.77-2.47C168.55,119.17,168.55,118.19,168.75,117.23z"/>
		<path class="st14" d="M132.09,64.15c0.99,0.38,1.98,0.77,2.96,1.15c0.97,0.03,1.94,0.05,2.91,0.08c4.74,1.11,9.01,3.35,13.01,5.99
			c2.9,1.91,5.48,4.33,7.95,6.82c0.29,0.43,0.54,0.89,0.88,1.28c3.42,3.89,5.84,8.36,7.72,13.14c0.44,1.12,0.63,2.34,0.93,3.51
			c-0.46,0.36-0.91,0.72-1.37,1.07c-1.04-3.24-2.18-6.42-3.81-9.44c-1.47-2.72-3.17-5.22-5.32-7.42c-0.38-0.8-1.07-1.34-1.67-1.96
			c-0.45-0.46-0.9-0.92-1.35-1.37c-5.22-5.15-11.44-8.49-18.53-10.26c-0.61-0.14-1.23-0.28-1.84-0.42
			c-3.01-0.69-6.08-1.12-9.16-1.03c-4.61,0.13-9.15,0.79-13.54,2.34c-3.75,1.32-7.32,3.01-10.54,5.31c-3.35,2.4-6.49,5.08-8.94,8.47
			c-0.68,0.94-1.55,1.76-2.33,2.63c-0.28-0.33-0.57-0.67-0.85-1c4.24-5.87,9.4-10.67,15.84-14.12c3.79-2.03,7.78-3.45,11.92-4.33
			C121.95,63.53,127.02,63.3,132.09,64.15z"/>
		<path class="st14" d="M89.22,83.03c0.28,0.33,0.57,0.67,0.85,1c-0.3,1.05-0.8,2.01-1.4,2.92c-2.46,3.76-3.56,8.04-4.75,12.28
			c-0.49,2.46-0.81,4.97-0.86,7.46c-0.1,4.58,0.12,9.16,1.7,13.56c0.35,0.97,0.52,2.01,0.77,3.01c-0.82-0.5-1.22-1.32-1.61-2.15
			c-1.41-3.03-2.05-6.22-2.33-9.54c-0.27-3.31-0.21-6.58,0.44-9.83c0.28-0.91,0.57-1.82,0.85-2.73c0.13-1.03,0.26-2.07,0.39-3.1
			C84.3,91.17,86.68,87.06,89.22,83.03z"/>
		<path class="st14" d="M85.53,123.26c-0.25-1.01-0.42-2.04-0.77-3.01c-1.58-4.4-1.8-8.97-1.7-13.56c0.05-2.49,0.37-5,0.86-7.46
			c5.52,1.18,11.03,2.35,16.55,3.53c-2.33,11.03-4.4,22.12-7.03,33.09c-1.2-1.47-2.41-2.95-3.61-4.42
			C88.22,128.8,86.94,126,85.53,123.26z"/>
		<path class="st14" d="M89.83,131.43c1.2,1.47,2.41,2.95,3.61,4.42c0.5,0.56,1.01,1.12,1.51,1.68c2.75,2.72,5.61,5.26,8.99,7.23
			c3.52,2.05,7.25,3.51,11.12,4.68c0.33,0.09,0.67,0.19,1,0.28c-0.07,0.33-0.15,0.66-0.22,0.99c-0.71,0.03-1.43,0.06-2.14,0.09
			c-1.73-0.63-3.46-1.26-5.19-1.9c-0.17-0.04-0.34-0.08-0.51-0.11c-0.25-0.06-0.51-0.12-0.76-0.17c-1.13-1.14-2.67-1.58-4-2.39
			c-5.23-3.22-9.84-7.07-12.85-12.57C90.01,132.96,89.76,132.24,89.83,131.43z"/>
		<path class="st14" d="M167.09,97.19c0.46-0.36,0.91-0.72,1.37-1.07c0.74,1.45,1.09,3.02,1.26,4.61c0.45,4.17,1.01,8.35,0.19,12.55
			c-0.07,0.33-0.01,0.69-0.02,1.04c-0.56,0.9-1.16,1.78-1.14,2.91c-0.2,0.97-0.2,1.94-0.1,2.91c-0.63,1.73-1.26,3.45-1.89,5.18
			c-1.1,0.2-1.72,1.01-2.14,1.92c-1.99,4.3-5.03,7.84-8.08,11.37c-0.86,1-1.82,1.99-3.24,2.23c0.14-0.16,0.27-0.35,0.43-0.49
			c6.16-5.43,10.56-11.99,12.83-19.93c0.33-1.17,0.76-2.3,1.15-3.45c-0.04-0.65,0.08-1.29,0.15-1.93c0.33-3,0.91-5.97,0.56-9.03
			C168.08,103.05,167.97,100.07,167.09,97.19z"/>
		<path class="st14" d="M153.3,140.84c1.43-0.23,2.38-1.23,3.24-2.23c3.05-3.53,6.09-7.07,8.08-11.37c0.42-0.91,1.04-1.71,2.14-1.92
			c-1.89,3.8-3.71,7.64-6.56,10.86c-2.35,2.9-5.14,5.31-8.04,7.65c-2.42,1.96-5.33,3.01-7.89,4.68c-5.65,2.48-11.59,3.75-17.73,3.95
			c-3.39,0.11-6.72-0.41-9.93-1.57c-0.26-0.06-0.51-0.11-0.77-0.17c0.07-0.33,0.15-0.66,0.22-1c0.25,0.04,0.49,0.08,0.74,0.11
			c4.22,0.89,8.45,1.28,12.78,0.81c4.13-0.45,8.11-1.36,11.94-2.96c0.88-0.2,1.68-0.56,2.39-1.12c0.4-0.16,0.8-0.29,1.19-0.48
			c2.33-1.12,4.56-2.41,6.6-4.01c0.69-0.06,1.11-0.44,1.33-1.08C153.13,140.94,153.21,140.89,153.3,140.84z"/>
		<path class="st14" d="M108,148.8c0.17,0.04,0.34,0.08,0.51,0.11C108.3,149.06,108.13,149.02,108,148.8z"/>
		<path class="st14" d="M100.47,102.76c-5.52-1.18-11.04-2.35-16.55-3.53c1.19-4.24,2.29-8.52,4.75-12.28
			c0.59-0.9,1.09-1.87,1.4-2.92c0.78-0.87,1.65-1.68,2.33-2.63c2.45-3.39,5.58-6.07,8.94-8.47c3.22-2.3,6.79-3.99,10.54-5.31
			c4.39-1.54,8.93-2.21,13.54-2.34c3.08-0.09,6.14,0.34,9.16,1.03c-0.91,4.33-1.83,8.65-2.74,12.98c-0.56,2.64-1.11,5.28-1.67,7.91
			c-0.2,0.89-0.41,1.77-0.6,2.66c-0.21,1.04-0.84,1.47-1.88,1.29c-1.52-0.26-3.04-0.18-4.53,0.11c-6.34,1.21-10.87,4.67-13.21,10.79
			c-0.48,0.77-0.62,1.66-0.83,2.52c-2.28-0.48-4.57-0.96-6.85-1.43C101.67,103.02,101.07,102.89,100.47,102.76z"/>
		<path class="st14" d="M167.09,97.19c0.89,2.87,0.99,5.86,1.33,8.82c0.35,3.06-0.23,6.03-0.56,9.03c-0.07,0.64-0.19,1.28-0.15,1.93
			c-5.58-1.19-11.17-2.37-16.75-3.56c2.33-11.03,4.67-22.06,7-33.09c2.15,2.2,3.85,4.7,5.32,7.42
			C164.9,90.77,166.04,93.95,167.09,97.19z"/>
		<path class="st14" d="M136.4,66.74c7.09,1.77,13.31,5.11,18.53,10.26c-1.06,2.34-1.18,4.91-1.83,7.34
			c-1.87-1.22-4.22-1.53-5.95-2.87c-1.54-1.19-3.16-1.5-4.94-1.6c-0.65-0.04-1.3-0.05-1.95-0.07c-0.44-0.01-0.85-0.08-1.25-0.3
			c-1.49-0.84-2.06-0.75-3.24,0.49c-0.95,0.99-1.59,2.15-1.92,3.49c-0.49,1.99-0.77,3.98-0.68,6.05c0.06,1.34,0.49,2.35,1.59,3.08
			c0.74,0.49,1.39,1.05,1.51,2.01c-1.76-0.86-3.25-2.24-5.2-2.75c0.25-1.26,0.5-2.53,0.75-3.79c0.9-2.13,1.11-4.42,1.6-6.65
			c0.37-1.68,0.94-3.33,0.88-5.08C135.01,73.15,135.71,69.94,136.4,66.74z"/>
		<path class="st14" d="M157.96,80.33c-2.33,11.03-4.67,22.06-7,33.09c0,0-0.09,0.07-0.09,0.07c-0.57-0.13-1.15-0.27-1.72-0.4
			c-0.08-0.02-0.16-0.05-0.24-0.07c2.46-11.54,4.92-23.09,7.38-34.63C156.88,78.99,157.57,79.53,157.96,80.33z"/>
		<path class="st14" d="M156.29,78.37c-2.46,11.54-4.92,23.09-7.38,34.63c-0.6-0.13-1.2-0.27-1.81-0.4c2-9.42,4-18.84,6-28.26
			c0.66-2.44,0.78-5.01,1.83-7.34C155.38,77.46,155.84,77.91,156.29,78.37z"/>
		<path class="st14" d="M136.4,66.74c-0.7,3.21-1.39,6.41-2.09,9.62c-1.05,0.79-1.18,2.36-2.49,2.95c0.91-4.33,1.83-8.65,2.74-12.98
			C135.18,66.46,135.79,66.6,136.4,66.74z"/>
		<path class="st14" d="M100.47,102.76c0.6,0.13,1.19,0.27,1.79,0.4c-0.26,1.19-0.52,2.37-0.77,3.56
			c-2.18,10.27-4.36,20.54-6.54,30.82c-0.5-0.56-1.01-1.12-1.51-1.68C96.07,124.88,98.15,113.79,100.47,102.76z"/>
		<path class="st14" d="M94.96,137.53c2.18-10.27,4.36-20.54,6.54-30.82c0.25-1.19,0.51-2.38,0.77-3.56
			c2.28,0.48,4.57,0.96,6.85,1.43c-0.25,1.57-0.61,3.14-0.21,4.73c-0.05,1.9,0.4,3.68,1.37,5.32c0.65,2.36,2.21,4.12,3.89,5.8
			c1.77,1.78,3.97,2.85,6.23,3.83c-1.78,8.39-3.55,16.77-5.33,25.16c-3.87-1.17-7.6-2.63-11.12-4.68
			C100.56,142.8,97.7,140.25,94.96,137.53z"/>
		<path class="st14" d="M115.06,149.44c1.78-8.39,3.55-16.77,5.33-25.16c0.58,0.13,1.16,0.25,1.73,0.38
			c-1.37,6.61-2.74,13.23-4.11,19.84c-0.4,1.78-0.81,3.55-1.21,5.33c-0.25-0.04-0.49-0.08-0.74-0.11
			C115.73,149.63,115.4,149.53,115.06,149.44z"/>
		<path class="st14" d="M150.96,113.41c5.58,1.19,11.17,2.37,16.75,3.56c-0.39,1.15-0.82,2.29-1.15,3.45
			c-2.27,7.94-6.67,14.49-12.83,19.93c-0.16,0.14-0.29,0.32-0.43,0.49c-0.09,0.05-0.18,0.11-0.26,0.16
			c-0.51,0.27-0.99,0.6-1.33,1.08c-2.04,1.6-4.27,2.89-6.6,4.01c-0.38,0.18-0.79,0.32-1.19,0.48c0.17-0.85,0.32-1.7,0.5-2.55
			c2.14-10.18,4.29-20.35,6.44-30.53L150.96,113.41z"/>
		<path class="st14" d="M116.8,149.84c0.4-1.78,0.81-3.55,1.21-5.33c1.44,1.22,1.44,1.23,2.03-0.71c0.1-0.33,0.23-0.66,0.28-1
			c0.84-6,2.72-11.77,3.91-17.7c0.43-0.01,0.86-0.03,1.29-0.03c5-0.05,9.29-1.73,12.65-5.54c1.92-1.84,3.03-4.15,3.8-6.65
			c0.17-0.41,0.35-0.81,0.52-1.22c1.53,0.32,3.07,0.63,4.6,0.95c0.6,0.13,1.2,0.27,1.81,0.4c0.08,0.02,0.16,0.05,0.24,0.07
			c-0.45,0.85-0.64,1.79-0.84,2.72c-2.26,10.63-4.52,21.26-6.77,31.89c-3.83,1.6-7.81,2.52-11.94,2.96
			C125.26,151.11,121.03,150.72,116.8,149.84z"/>
		<path class="st14" d="M141.53,147.68c2.26-10.63,4.52-21.26,6.77-31.89c0.2-0.93,0.39-1.87,0.84-2.72
			c0.57,0.13,1.15,0.27,1.72,0.4c-2.15,10.18-4.29,20.35-6.44,30.53c-0.18,0.85-0.34,1.7-0.5,2.55
			C143.21,147.12,142.41,147.49,141.53,147.68z"/>
		<path class="st14" d="M151.71,142.08c0.34-0.49,0.81-0.81,1.33-1.08C152.82,141.64,152.4,142.02,151.71,142.08z"/>
		<path class="st14" d="M108.91,109.32c-0.4-1.6-0.05-3.16,0.21-4.73c0.21-0.86,0.35-1.75,0.83-2.52c0.78,0.21,1.51,0.1,2.19-0.33
			c0.65,1.52,1.81,2.47,3.32,3.08c3.23,1.32,6.47,1.35,9.74,0.19c1.18-0.42,2.35-0.92,3.65-0.52c0.71,1.48,1.99,2.51,2.92,3.82
			c-2.12,1.39-4.07,3.08-6.71,3.51c-3.96,0.65-7.91,0.75-11.87-0.01c-0.88-0.37-1.46-1.08-1.94-1.84
			C110.64,109,109.93,108.68,108.91,109.32z"/>
		<path class="st14" d="M112.14,101.74c-0.68,0.43-1.41,0.54-2.19,0.33c2.34-6.12,6.88-9.58,13.21-10.79
			c1.49-0.29,3.01-0.37,4.53-0.11c1.03,0.18,1.66-0.25,1.88-1.29c0.18-0.89,0.4-1.78,0.6-2.66c0.55,0.29,1.11,0.58,1.66,0.87
			c-0.25,1.26-0.5,2.53-0.75,3.79c-0.25,0.17-0.48,0.42-0.76,0.5c-1.43,0.38-2.63,1.72-4.25,1.24c-3.67-1.08-6.81-0.05-9.76,2.12
			C114.22,97.27,113.09,99.44,112.14,101.74z"/>
		<path class="st14" d="M131.82,88.09c-0.55-0.29-1.11-0.58-1.66-0.87c0.56-2.64,1.11-5.28,1.67-7.91c1.3-0.58,1.43-2.15,2.49-2.95
			c0.05,1.75-0.51,3.41-0.88,5.08C132.93,83.66,132.72,85.96,131.82,88.09z"/>
		<path class="st14" d="M147.1,112.61c-1.53-0.32-3.07-0.63-4.6-0.95c0.4-2.91,0.59-5.81-0.59-8.62c-0.01-0.57-0.18-1.1-0.44-1.6
			c-1.32-2.53-2.88-4.87-5.22-6.6c0.01-0.07,0.02-0.14,0.03-0.22c-0.13-0.95-0.77-1.52-1.51-2.01c-1.11-0.73-1.53-1.74-1.59-3.08
			c-0.09-2.07,0.2-4.06,0.68-6.05c0.33-1.34,0.97-2.5,1.92-3.49c1.18-1.24,1.76-1.33,3.24-0.49c0.39,0.22,0.81,0.29,1.25,0.3
			c0.65,0.02,1.3,0.03,1.95,0.07c1.78,0.11,3.4,0.42,4.94,1.6c1.73,1.33,4.08,1.65,5.95,2.87C151.1,93.76,149.1,103.18,147.1,112.61
			z"/>
		<path class="st14" d="M136.28,94.62c-0.01,0.07-0.01,0.15-0.03,0.22c-0.29,2.07-1.39,3.73-2.92,5.03c-1.65,1.41-3.08,3-4.48,4.63
			c-1.3-0.4-2.47,0.1-3.65,0.52c-3.27,1.15-6.51,1.13-9.74-0.19c-1.51-0.62-2.68-1.56-3.32-3.08c0.96-2.3,2.09-4.47,4.17-6.01
			c2.95-2.17,6.09-3.2,9.76-2.12c1.62,0.48,2.82-0.87,4.25-1.24c0.28-0.07,0.51-0.33,0.76-0.5
			C133.03,92.38,134.51,93.76,136.28,94.62z"/>
		<path class="st14" d="M108.91,109.32c1.02-0.64,1.73-0.32,2.35,0.66c0.48,0.76,1.06,1.47,1.94,1.84c0.39,0.82,1.16,1.16,1.94,1.43
			c3.29,1.14,6.63,1.21,9.98,0.37c1.14-0.29,2.2-0.42,3.29,0.06c3.56,1.56,7.06,1.55,10.49-0.41c0.33-0.19,0.73-0.28,1.08-0.44
			c0.68-0.3,1.34-0.3,2,0.05c-0.76,2.5-1.88,4.81-3.8,6.65c-2.36,0.26-4.58-0.22-6.85-0.93c-1.77-0.55-3.71-1.22-5.6-0.7
			c-2.92,0.8-5.74,0.32-8.6-0.18c-1.78-0.31-3.4-0.99-4.76-2.22c-0.59-0.54-1.26-0.91-2.1-0.86
			C109.31,113,108.85,111.23,108.91,109.32z"/>
		<path class="st14" d="M110.27,114.65c0.84-0.06,1.51,0.32,2.1,0.86c1.36,1.23,2.97,1.91,4.76,2.22c2.85,0.5,5.68,0.99,8.6,0.18
			c1.89-0.52,3.83,0.15,5.6,0.7c2.27,0.7,4.49,1.19,6.85,0.93c-3.36,3.81-7.64,5.49-12.65,5.54c-0.43,0-0.86,0.02-1.29,0.03
			c-0.7-0.14-1.41-0.29-2.11-0.43c-0.58-0.13-1.16-0.25-1.73-0.38c-2.26-0.99-4.46-2.06-6.23-3.83
			C112.48,118.77,110.93,117.01,110.27,114.65z"/>
		<path class="st14" d="M122.13,124.66c0.7,0.14,1.41,0.29,2.11,0.43c-1.2,5.92-3.08,11.7-3.91,17.7c-0.05,0.34-0.18,0.67-0.28,1
			c-0.59,1.94-0.59,1.94-2.03,0.71C119.39,137.89,120.76,131.28,122.13,124.66z"/>
		<path class="st14" d="M141.98,112.87c-0.66-0.36-1.32-0.35-2-0.05c-0.36,0.16-0.75,0.25-1.08,0.44
			c-3.43,1.97-6.93,1.98-10.49,0.41c-1.1-0.48-2.15-0.35-3.29-0.06c-3.35,0.84-6.7,0.78-9.98-0.37c-0.78-0.27-1.54-0.61-1.94-1.43
			c3.95,0.76,7.9,0.66,11.87,0.01c2.64-0.43,4.59-2.13,6.71-3.51c0.95-0.01,1.89,0.02,2.84-0.04c3.12-0.2,5.51-1.51,6.75-4.53
			c0.11-0.26,0.36-0.47,0.55-0.7c1.18,2.81,0.99,5.71,0.59,8.62C142.32,112.06,142.15,112.47,141.98,112.87z"/>
		<path class="st14" d="M141.91,103.04c-0.19,0.23-0.44,0.44-0.55,0.7c-1.24,3.02-3.63,4.33-6.75,4.53
			c-0.94,0.06-1.89,0.03-2.84,0.04c-0.93-1.31-2.21-2.34-2.92-3.82c1.4-1.63,2.83-3.22,4.48-4.63c1.53-1.3,2.63-2.96,2.92-5.03
			c2.34,1.72,3.9,4.07,5.22,6.6C141.73,101.94,141.9,102.47,141.91,103.04z"/>
	</g>
	<path class="st15" d="M259.51,61.64l17.63-12.67l-1.08,8.75c13.34,5.41,21.98,19.2,20.29,34.15l-11.13-1.36
		c0.95-8.74-3.46-16.85-10.61-21.03l-1,8.1L259.51,61.64z"/>
	<path class="st15" d="M365.5,77.75l-13.74-16.81l-1.23,8.73c-14.29,1.76-26.21,12.83-28.46,27.71l11.1,1.57
		c1.35-8.68,7.71-15.37,15.71-17.56l-1.14,8.08L365.5,77.75z"/>
	<path class="st15" d="M290.15,132.81L276.42,116l-1.23,8.73c-14.29,1.76-26.21,12.83-28.46,27.71l11.1,1.57
		c1.35-8.68,7.71-15.37,15.71-17.56l-1.14,8.08L290.15,132.81z"/>
	<path class="st15" d="M277.15,203.8l-13.74-16.81l-1.23,8.73c-14.29,1.76-26.21,12.83-28.46,27.71l11.1,1.57
		c1.35-8.68,7.71-15.37,15.71-17.56l-1.14,8.08L277.15,203.8z"/>
	<path class="st15" d="M314.01,136.11l17.63-12.67l-1.08,8.75c13.34,5.41,21.98,19.2,20.29,34.15l-11.13-1.36
		c0.95-8.74-3.46-16.85-10.61-21.03l-1,8.1L314.01,136.11z"/>
	<path class="st15" d="M310.65,207.12l17.63-12.67l-1.08,8.75c13.34,5.41,21.98,19.2,20.29,34.15L336.36,236
		c0.95-8.74-3.46-16.85-10.61-21.03l-1,8.1L310.65,207.12z"/>
</g>
<g id="Warstwa_2">
</g>
</svg>
