<?xml version="1.0" encoding="utf-8"?>
<!-- Generator: Adobe Illustrator 23.0.1, SVG Export Plug-In . SVG Version: 6.00 Build 0)  -->
<svg version="1.1" id="Warstwa_1" xmlns="http://www.w3.org/2000/svg" xmlns:xlink="http://www.w3.org/1999/xlink" x="0px" y="0px"
	 viewBox="0 0 100 100" style="enable-background:new 0 0 100 100;" xml:space="preserve">
<style type="text/css">
	.st0{fill:#B19F77;}
	.st1{fill:#D3BF8F;}
	.st2{fill:#D9CDAF;}
</style>
<g>
	<path class="st0" d="M4,68.25L5.75,70L4,71.7v4.95l2.8,2.8L4,82.25v10.7C4,94.98,5.02,96,7.05,96h8.8l2.2-2.2l2.2,2.2H92.9
		c2.07,0,3.1-1.02,3.1-3.05v-5.7l-4.1-4.1L96,79V23.85l-3.1-3.1L96,17.6V7.05C96,5.02,94.97,4,92.9,4H54.35L51.5,6.9L48.6,4H7.05
		C5.02,4,4,5.02,4,7.05V68.25 M2,92.95V7.05C2,3.68,3.68,2,7.05,2H92.9C96.3,2,98,3.68,98,7.05v85.9c0,3.37-1.7,5.05-5.1,5.05H7.05
		C3.68,98,2,96.32,2,92.95"/>
	<path class="st1" d="M4,68.25V7.05C4,5.02,5.02,4,7.05,4H48.6l2.9,2.9L54.35,4H92.9C94.97,4,96,5.02,96,7.05V17.6l-3.1,3.15
		l3.1,3.1V79l-4.1,4.15l4.1,4.1v5.7c0,2.03-1.03,3.05-3.1,3.05H20.25l-2.2-2.2l-2.2,2.2h-8.8C5.02,96,4,94.98,4,92.95v-10.7l2.8-2.8
		L4,76.65V71.7L5.75,70L4,68.25"/>
	<path class="st2" d="M2,92.95C2,96.32,3.68,98,7.05,98H92.9c3.4,0,5.1-1.68,5.1-5.05V7.05C98,3.68,96.3,2,92.9,2H7.05
		C3.68,2,2,3.68,2,7.05V92.95 M0,92.95V7.05C0,2.35,2.35,0,7.05,0H92.9c2.37,0,4.12,0.62,5.25,1.85c1.23,1.13,1.85,2.87,1.85,5.2
		v85.9c0,2.33-0.62,4.07-1.85,5.2c-1.13,1.23-2.88,1.85-5.25,1.85H7.05C2.35,100,0,97.65,0,92.95"/>
</g>
</svg>
