<?xml version="1.0" encoding="utf-8"?>
<!-- Generator: Adobe Illustrator 23.0.1, SVG Export Plug-In . SVG Version: 6.00 Build 0)  -->
<svg version="1.1" id="Warstwa_1" xmlns="http://www.w3.org/2000/svg" xmlns:xlink="http://www.w3.org/1999/xlink" x="0px" y="0px"
	 viewBox="0 0 80 80" style="enable-background:new 0 0 80 80;" xml:space="preserve">
<style type="text/css">
	.st0{fill:#F9F9FA;}
	.st1{fill:#282828;}
</style>
<path class="st0" d="M40,0c11.03,0,20.45,3.9,28.25,11.7C76.08,19.53,80,28.97,80,40s-3.92,20.45-11.75,28.25
	C60.45,76.08,51.03,80,40,80c-11.1,0-20.55-3.92-28.35-11.75C3.88,60.45,0,51.03,0,40s3.88-20.47,11.65-28.3C19.45,3.9,28.9,0,40,0"
	/>
<path class="st1" d="M59.97,52.69L48.02,40.56c0.93-1.93,1.4-4.08,1.4-6.44c0-4.29-1.52-7.97-4.57-11.01
	c-2.99-3.05-6.63-4.57-10.92-4.57c-4.23,0-7.84,1.52-10.83,4.57h-0.09c-2.99,3.05-4.48,6.72-4.48,11.01c0,4.29,1.49,7.97,4.48,11.01
	c3.05,3.05,6.69,4.57,10.92,4.57c2.61,0,4.98-0.56,7.09-1.68l11.76,11.95c1,1,2.21,1.49,3.64,1.49c1.37,0,2.55-0.5,3.55-1.49
	c1-1.06,1.49-2.27,1.49-3.64C61.53,54.9,61.03,53.69,59.97,52.69z M39.53,39.72v0.09c-1.56,1.56-3.42,2.33-5.6,2.33
	c-2.18,0-4.04-0.81-5.6-2.43C26.77,38.16,26,36.3,26,34.12s0.78-4.04,2.33-5.6l0.09-0.09c1.49-1.56,3.33-2.33,5.51-2.33
	c2.18,0,4.04,0.78,5.6,2.33c1.56,1.62,2.33,3.52,2.33,5.69S41.09,38.16,39.53,39.72z"/>
</svg>
