<?xml version="1.0" encoding="utf-8"?>
<!-- Generator: Adobe Illustrator 23.0.1, SVG Export Plug-In . SVG Version: 6.00 Build 0)  -->
<svg version="1.1" id="Warstwa_1" xmlns="http://www.w3.org/2000/svg" xmlns:xlink="http://www.w3.org/1999/xlink" x="0px" y="0px"
	 viewBox="0 0 434.86 434.93" style="enable-background:new 0 0 434.86 434.93;" xml:space="preserve">
<style type="text/css">
	.st0{fill:#4C3C33;}
	.st1{fill:#4B392E;}
	.st2{fill:#523E2F;}
	.st3{fill:#453529;}
	.st4{fill:#503E32;}
	.st5{fill:#4A382A;}
	.st6{fill:#34271A;}
	.st7{fill:#433222;}
	.st8{fill:#463938;}
	.st9{fill:#503F37;}
	.st10{fill:#745039;}
	.st11{fill:#3A2623;}
	.st12{fill:#543024;}
	.st13{fill:#79533A;}
	.st14{fill:#734D2B;}
</style>
<path class="st0" d="M0.1,205.93c0.34-18.1,3.12-35.77,9.24-52.88c1.27-3.55,4.09-5.03,7.1-6.54c13-6.55,13.12-6.61,8.46-20.15
	c-1.53-4.43-1.3-8.2,0.89-12.38c12.92-24.66,30.69-45.11,51.64-63.4C93.89,36.2,112.4,25.33,131.96,16.8
	c20.05-8.74,41.29-15.16,63.61-15.96c3.46-0.12,6.91-1.43,10.4-0.2c-0.02,15.67-0.04,31.34-0.06,47.01
	c-19.7,0.84-38.58,5.74-56.4,13.66c-14.84,6.6-28.69,15.11-41.32,25.77c-21.45,18.11-36.99,40.24-48.24,65.67
	c-6.32,17.16-11.99,34.48-12.02,53.06C31.98,205.87,16.04,205.9,0.1,205.93z"/>
<path class="st1" d="M51.97,358.64c-9.77-9.62-17.19-20.85-24.09-32.69c-11-18.89-17.88-39.24-23.56-60.1
	C1.03,253.77,0.75,241.24,0,228.82c15.97-0.03,31.93-0.05,47.9-0.08c0.17,12.74,2.53,25.06,6.19,37.28
	c3.67,12.26,8.63,23.74,16.35,33.99c2.13,2.82,4.26,5.57,7.76,6.8c7.45,9.17,14.5,18.67,22.66,27.24c0.37,3.1,1.89,5.62,3.88,7.95
	c15.66,18.26,36.06,29.02,58.27,36.95c5.62,2.01,11.78,2.43,16.92,5.8c-6.64,0.73-12.71-2.49-19.18-2.82
	c-20.25-1.02-38.05-10.3-56.54-17.09c-5.42-1.99-10.54-3.89-16.31-3.58c-2.29,0.13-4.39-0.27-6.01-1.88
	c-3.46-3.44-7.9-4.01-12.4-4.52c-3.97-0.44-7.97-0.78-11.89-1.51C51.56,352.25,51.55,352.16,51.97,358.64z"/>
<path class="st2" d="M377.92,69.78C394.66,88.42,409,108.89,418.43,132c7.8,19.12,14.44,38.97,15.41,60.05
	c0.21,4.64,1.36,9.22,0.93,13.9c-15.63,0-31.26,0-46.89,0c-0.26-1.3-0.74-2.6-0.76-3.91c-0.27-16.42-5.7-31.67-10.71-47
	c-1.91-5.84-4.48-11.46-8.42-16.31c-2.08-4.16-3.76-8.59-6.3-12.44c-10.88-16.45-23.53-31.34-39.47-43.21
	c-1.58-1.18-2.9-2.72-4.34-4.09c2-2.88,4.48-3.16,7.28-1.26c3.38,2.3,6.59,1.68,10.33,0.46c5.58-1.83,11.39-3.12,17.46-1.87
	c4.72,0.96,9.25,1.05,13.84-1.72C370.17,72.56,373.27,69.14,377.92,69.78z"/>
<path class="st3" d="M380,361.84c-10.29,15.22-25.15,25.76-39.73,35.91c-19.65,13.68-41.37,23.8-64.83,30.14
	c-12.8,3.46-25.63,5.48-38.71,6.84c-5.75,0.6-10.86,0.01-15.22-4.2c-1.29-1.24-3.07-1.98-4.62-2.94
	c0.28-13.94,1.26-27.88,0.04-41.83c12.98,1.83,25.91,1.12,38.55-2.01c22.92-5.68,44.19-15.17,63.44-28.99
	c3.07,3.24,6.29,6.36,9.19,9.76c3.59,4.22,7.78,4.79,12.46,2.43c5.47-2.75,10.79-5.79,16.23-8.59
	C367.53,352.86,371.5,353.49,380,361.84z"/>
<path class="st4" d="M377.92,69.78c-4.65-0.64-7.75,2.78-11.13,4.81c-4.59,2.77-9.12,2.68-13.84,1.72
	c-6.07-1.24-11.88,0.04-17.46,1.87c-3.74,1.23-6.95,1.84-10.33-0.46c-2.79-1.9-5.28-1.62-7.27,1.26
	c-11.25-7.38-22.86-14.42-35.29-19.28c-17.13-6.7-34.94-11.7-53.63-12.11c-0.02-15.87,1.63-31.71,0.99-47.6
	c31.9,1.59,62.02,9.48,89.95,25.26c2.66,1.5,4.35,3.53,5.1,6.42c1.01,3.87,2.22,7.69,2.97,11.61c0.89,4.59,3.2,7.23,7.91,5.51
	c17.42-6.38,26.99,5.87,37.64,15.57C375.22,65.91,376.46,67.96,377.92,69.78z"/>
<path class="st3" d="M51.97,358.64c-0.42-6.49-0.41-6.39,5.62-5.28c3.92,0.72,7.92,1.06,11.89,1.51c4.51,0.5,8.94,1.07,12.4,4.52
	c1.62,1.61,3.72,2,6.01,1.88c5.76-0.32,10.88,1.59,16.31,3.58c18.48,6.79,36.28,16.06,56.54,17.09c6.47,0.33,12.54,3.55,19.18,2.82
	c1,0.01,2,0.03,3,0.04c0.67,0.74,1.34,0.75,2.02,0.02c7,0.99,14,1.99,21,2.98c0,15.66-0.01,31.33-0.01,46.99
	c-18.79,0.09-36.76-4.03-54.75-9.25c-19.78-5.75-37.86-15.01-54.66-26.12c-15.39-10.17-30.35-21.62-41.85-36.6
	C53.67,361.5,52.87,360.04,51.97,358.64z"/>
<path class="st5" d="M380,361.84c-8.5-8.35-12.47-8.98-23.19-3.47c-5.44,2.8-10.76,5.84-16.23,8.59c-4.68,2.35-8.86,1.78-12.46-2.43
	c-2.89-3.4-6.11-6.52-9.19-9.76c8.3-8.31,18.36-14.57,25.9-23.87c9.01-11.1,17.57-22.38,24.09-35.14c4.84,2.24,8.09,6.99,13.18,8.7
	c9.23,3.1,17.41,1.07,24.87-5.21c3.94-3.32,7.92-7.4,14.05-5.46c-0.2,2.68-0.75,5.33-1.94,7.7c-10.38,20.65-20.5,41.46-36.85,58.34
	C381.54,360.56,380.74,361.18,380,361.84z"/>
<path class="st1" d="M421.02,293.8c-6.13-1.95-10.11,2.14-14.05,5.46c-7.46,6.29-15.64,8.32-24.87,5.21
	c-5.09-1.71-8.34-6.46-13.18-8.7c8.15-14.36,11.94-30.23,16-46.01c0.99-6.98,1.97-13.97,2.96-20.95c15.4-0.04,30.79-0.08,46.19-0.12
	c1.68,4.45-0.09,8.86-0.19,13.29C433.45,260.2,427.16,276.98,421.02,293.8z"/>
<path class="st0" d="M229.95,0c0.65,15.89-1.01,31.73-0.99,47.6c-3.67,0.67-7.33,1.34-11,2.01c-0.92-13.94-1.23-27.89-1.01-41.85
	C221.53,5.59,224.9,1.39,229.95,0z"/>
<path class="st6" d="M0.1,205.93c15.94-0.03,31.88-0.07,47.82-0.1c0.34,3.98,0.67,7.97,1.01,11.95c-13.9-0.07-27.8-0.15-41.71-0.22
	C5.09,213.54,1.5,210.4,0.1,205.93z"/>
<path class="st6" d="M387.88,205.95c15.63,0,31.26,0,46.89,0c-1.77,4.5-5.59,7.63-7.84,11.81c-13.67,0.01-27.33,0.01-41,0.02
	C384.92,213.56,386.51,209.77,387.88,205.95z"/>
<path class="st7" d="M205.94,434.78c0-15.66,0.01-31.33,0.01-46.99c2.66-0.68,5.31-1.36,7.97-2.04c1.01,0,2.02,0,3.03,0.01
	c1.22,13.94,0.24,27.89-0.04,41.83C213,429.61,210.11,433.17,205.94,434.78z"/>
<path class="st5" d="M216.95,7.76c-0.22,13.96,0.1,27.92,1.01,41.85c-4.02-0.65-8.03-1.3-12.05-1.95
	c0.02-15.67,0.04-31.34,0.06-47.01C210.29,2,213.59,4.92,216.95,7.76z"/>
<path class="st8" d="M7.22,217.56c13.9,0.07,27.8,0.15,41.71,0.22c-0.34,3.65-0.68,7.3-1.03,10.95c-15.97,0.03-31.93,0.05-47.9,0.08
	C2.41,225.07,4.81,221.32,7.22,217.56z"/>
<path class="st9" d="M385.93,217.78c13.67-0.01,27.33-0.01,41-0.02c2.65,3.46,5.91,6.53,7.13,10.93
	c-15.39,0.04-30.79,0.08-46.19,0.12C386.71,225.22,385.95,221.57,385.93,217.78z"/>
<path class="st6" d="M205.91,47.66c4.02,0.65,8.03,1.3,12.05,1.95c3.67-0.67,7.33-1.34,11-2.01c18.69,0.41,36.5,5.41,53.63,12.11
	c12.43,4.86,24.04,11.91,35.29,19.28c1.44,1.37,2.75,2.91,4.34,4.09c15.94,11.87,28.59,26.75,39.47,43.21
	c2.55,3.85,4.22,8.28,6.3,12.44c-1.43,1.71-2.86,3.42-4.29,5.13c-6.5-11.33-13.32-22.37-21.86-32.42
	c-7.68-9.04-16.05-17.08-25.89-23.65c-2.08-2.7-5.1-4.16-7.83-6.02c-2.06-1.36-4.11-2.72-6.17-4.08
	c-23.71-15.18-49.74-22.76-77.78-23.76c-2.41-0.03-4.82-0.07-7.24-0.1c-11.87-0.19-23.73,0.64-35.22,3.42
	c-17.2,4.16-33.72,10.28-48.98,19.58c-13.03,7.95-25.1,17.14-35.35,28.35c-10.68,11.68-20.33,24.24-26.81,38.94
	c-1.8,4.09-4.41,7.83-6.65,11.73c-1.33-1.03-2.67-2.06-4-3.09c11.25-25.44,26.79-47.56,48.24-65.67
	c12.63-10.66,26.48-19.18,41.32-25.77C167.33,53.4,186.21,48.5,205.91,47.66z"/>
<path class="st7" d="M59.94,152.77c1.33,1.03,2.67,2.06,4,3.09c-0.3,4.18-1.41,8.2-2.92,12.07c-6.25,16.07-6.96,33.02-8.05,49.91
	c0.14,9.65,0.93,19.31,2.72,28.71c3.29,17.29,7.77,34.31,17.2,49.56c2.08,3.37,3.55,7.12,5.29,10.69c-3.49-1.23-5.63-3.97-7.76-6.8
	c-7.72-10.25-12.68-21.73-16.35-33.99c-3.66-12.22-6.01-24.54-6.19-37.28c0.34-3.65,0.68-7.3,1.03-10.95
	c-0.34-3.99-0.67-7.97-1.01-11.95C47.95,187.24,53.62,169.93,59.94,152.77z"/>
<path class="st10" d="M78.19,306.8c-1.75-3.57-3.21-7.32-5.29-10.69c-9.42-15.26-13.91-32.27-17.2-49.56
	c-1.79-9.4-2.59-19.07-2.72-28.71c21.66,0.01,43.32,0.03,64.98,0.04c0.07,43.3,1.1,86.6,0,129.9c-5.7-4.58-11.4-9.15-17.1-13.73
	C92.69,325.47,85.64,315.97,78.19,306.8z"/>
<path class="st4" d="M100.85,334.04c5.7,4.58,11.4,9.15,17.1,13.73c2.33,1.71,4.67,3.41,7.01,5.12
	c12.48,8.02,25.25,15.3,39.52,19.98c14.86,4.88,30.02,7.4,45.49,8.7c1.33,0.09,2.66,0.18,3.99,0.27c-0.01,1.3-0.03,2.61-0.04,3.91
	c-2.66,0.68-5.31,1.36-7.97,2.04c-7-0.99-14-1.99-21-2.98c-0.67-0.01-1.35-0.01-2.02-0.02c-1-0.01-2-0.03-3-0.04
	c-5.15-3.37-11.31-3.8-16.92-5.8c-22.21-7.93-42.61-18.69-58.27-36.95C102.74,339.67,101.22,337.15,100.85,334.04z"/>
<path class="st11" d="M363.7,143.86c1.43-1.71,2.86-3.42,4.29-5.13c3.94,4.85,6.51,10.47,8.42,16.31
	c5.01,15.32,10.44,30.57,10.71,47c0.02,1.31,0.5,2.6,0.76,3.91c-1.37,3.83-2.95,7.62-1.95,11.83c0.02,3.79,0.78,7.44,1.95,11.03
	c-0.99,6.98-1.97,13.97-2.96,20.95c-3.98,1.65-5.65,5.15-6.5,8.91c-4.04,17.72-12.65,33.45-21.28,49.15
	c-2.44,4.44-5.23,8.94-10.41,10.96c0.4-0.73,0.73-1.51,1.22-2.18c18.79-25.31,30.09-53.45,32.29-85.07
	c0.32-4.64,1.03-9.26,1.56-13.89c-0.67-2.41-0.74-4.89-0.98-7.36c-1.14-11.53-1.33-23.16-5.08-34.36
	C372.11,165.07,369.32,153.94,363.7,143.86z"/>
<path class="st8" d="M346.73,318.77c5.18-2.02,7.97-6.51,10.41-10.96c8.63-15.7,17.24-31.43,21.28-49.15
	c0.86-3.75,2.53-7.26,6.5-8.91c-4.06,15.78-7.85,31.65-16,46.01c-6.52,12.75-15.08,24.03-24.09,35.13
	c-7.54,9.29-17.6,15.56-25.9,23.87c-19.25,13.82-40.53,23.31-63.44,28.99c-12.64,3.13-25.57,3.84-38.55,2.01
	c-1.01,0-2.02,0-3.03-0.01c0.01-1.3,0.03-2.61,0.04-3.91c0.96-0.05,1.92-0.11,2.87-0.16c16.56-0.04,32.77-1.94,48.66-7.15
	c15.17-4.98,29.39-11.58,42.49-20.65c3.15-1.44,5.87-3.46,8.1-6.12c1.36-0.91,2.79-1.74,4.08-2.74c7.86-6.06,15.2-12.68,21.58-20.31
	c2.55-0.76,3.83-2.55,4.12-5.12C346.16,319.31,346.44,319.04,346.73,318.77z"/>
<path class="st1" d="M182.93,384.79c0.67,0.01,1.35,0.01,2.02,0.02C184.27,385.55,183.59,385.54,182.93,384.79z"/>
<path class="st12" d="M117.95,217.87c-21.66-0.01-43.32-0.03-64.98-0.04c1.09-16.89,1.8-33.84,8.05-49.91
	c1.5-3.87,2.61-7.88,2.92-12.07c2.24-3.9,4.85-7.63,6.65-11.73c6.48-14.7,16.13-27.26,26.81-38.94
	c10.25-11.21,22.32-20.41,35.35-28.35c15.25-9.3,31.78-15.42,48.98-19.58c11.49-2.78,23.35-3.61,35.22-3.42
	c0.02,16.98,0.04,33.96,0.06,50.94c0.02,10.35,0.03,20.7,0.05,31.05c-0.04,3.49-0.14,6.99-0.11,10.48c0.03,4.09-1.99,6.2-6.02,6.35
	c-5.91,0.23-11.55,1.75-16.92,4.01c-22.84,9.61-37.1,26.22-41.02,51.07c-1.21,3.28-0.99,6.72-1.11,10.12
	c-8.95,0.03-17.91,0.05-26.86,0.08C122.65,217.92,120.3,217.9,117.95,217.87z"/>
<path class="st13" d="M363.7,143.86c5.62,10.08,8.41,21.21,12.03,32.06c3.75,11.2,3.94,22.83,5.08,34.36
	c0.24,2.47,0.31,4.95,0.98,7.36c-21.91,0-43.83,0-65.74,0c-0.03-43.28-0.06-86.56-0.09-129.85c9.84,6.56,18.21,14.6,25.89,23.65
	C350.38,121.49,357.21,132.52,363.7,143.86z"/>
<path class="st10" d="M224.18,53.94c28.04,1,54.07,8.58,77.78,23.76c-2.11,9.62-0.51,19.37-1.03,29.05
	c-7.98-3.08-17.05-2.39-24.63-6.02c-6.73-3.22-13.06-3.1-19.84-2.08c-2.47,0.37-4.92,0.84-7.37,1.3c-1.66,0.31-3.26,0.39-4.92-0.13
	c-6.25-1.97-8.33-1.16-11.79,4.43c-2.78,4.49-4.25,9.34-4.42,14.64c-0.24,7.86,0.27,15.57,2.26,23.26c1.29,4.97,3.7,8.42,8.44,10.28
	c3.18,1.25,6.05,2.86,7.28,6.34c-7.31-1.83-14-5.84-21.73-6.18c-0.07-4.94-0.14-9.88-0.21-14.82c1.68-8.71,0.63-17.5,0.73-26.25
	c0.07-6.59,0.87-13.25-0.73-19.79C224.05,79.13,224.11,66.54,224.18,53.94z"/>
<path class="st0" d="M315.96,87.79c0.03,43.28,0.06,86.56,0.09,129.85c0,0-0.28,0.33-0.28,0.33c-2.26-0.05-4.52-0.1-6.78-0.15
	c-0.32-0.03-0.65-0.05-0.97-0.08c0.03-45.32,0.07-90.64,0.1-135.97C310.86,83.63,313.88,85.1,315.96,87.79z"/>
<path class="st14" d="M308.13,81.78c-0.03,45.32-0.07,90.64-0.1,135.97c-2.37-0.02-4.74-0.04-7.1-0.06c0-36.98,0-73.96,0-110.93
	c0.52-9.68-1.08-19.43,1.03-29.05C304.02,79.06,306.07,80.42,308.13,81.78z"/>
<path class="st1" d="M224.18,53.94c-0.06,12.6-0.13,25.2-0.19,37.79c-3.33,3.81-2.56,9.82-6.99,13.05
	c-0.02-16.98-0.04-33.96-0.06-50.94C219.35,53.87,221.77,53.9,224.18,53.94z"/>
<path class="st14" d="M117.95,217.87c2.35,0.02,4.7,0.05,7.05,0.07c-0.02,4.66-0.05,9.33-0.05,14c0,40.32,0,80.64,0,120.96
	c-2.34-1.71-4.67-3.41-7.01-5.12C119.06,304.47,118.02,261.17,117.95,217.87z"/>
<path class="st10" d="M124.96,352.89c0-40.32,0-80.64,0-120.96c0-4.67,0.03-9.33,0.05-14c8.96-0.03,17.91-0.05,26.87-0.08
	c0.31,6.1,0.21,12.26,3,17.95c1.31,7.2,4.45,13.49,9.37,18.9c4.34,8.36,11.59,13.72,19.23,18.69c8.07,5.25,17.19,7.53,26.45,9.44
	c0.01,32.91,0.03,65.82,0.04,98.73c-15.47-1.3-30.63-3.82-45.49-8.7C150.21,368.19,137.44,360.92,124.96,352.89z"/>
<path class="st14" d="M209.97,381.57c-0.01-32.91-0.03-65.82-0.04-98.73c2.27,0.01,4.54,0.03,6.82,0.04
	c0.13,25.93,0.26,51.87,0.39,77.8c-0.1,7-0.2,14-0.3,20.99c-0.96,0.05-1.92,0.11-2.87,0.16
	C212.63,381.75,211.3,381.66,209.97,381.57z"/>
<path class="st12" d="M316.05,217.64c21.92,0,43.83,0,65.74,0c-0.53,4.63-1.24,9.24-1.56,13.89c-2.2,31.62-13.5,59.76-32.29,85.07
	c-0.49,0.66-0.82,1.45-1.22,2.18c-0.29,0.27-0.57,0.54-0.86,0.81c-1.71,1.44-3.23,3.03-4.12,5.12
	c-6.39,7.63-13.72,14.25-21.58,20.31c-1.3,1-2.72,1.83-4.09,2.74c-0.05-3.33-0.14-6.65-0.15-9.98
	c-0.06-39.94-0.11-79.87-0.17-119.81L316.05,217.64z"/>
<path class="st12" d="M216.83,381.68c0.1-7,0.2-14,0.3-20.99c6.38,3.45,6.39,3.45,7.04-4.3c0.11-1.32,0.34-2.66,0.25-3.97
	c-1.63-23.21,0.82-46.39,0.59-69.59c1.61-0.38,3.22-0.78,4.84-1.14c18.76-4.17,33.52-13.92,43.09-30.9c5.74-8.45,8.08-18,8.95-28.01
	c0.33-1.66,0.67-3.32,1-4.98c6.01-0.04,12.02-0.07,18.03-0.11c2.37,0.02,4.73,0.04,7.1,0.06c0.32,0.02,0.65,0.05,0.97,0.08
	c-1.01,3.57-0.99,7.23-0.99,10.89c0,41.72-0.01,83.44-0.02,125.16c-13.1,9.07-27.32,15.67-42.49,20.65
	C249.6,379.74,233.39,381.64,216.83,381.68z"/>
<path class="st11" d="M307.98,353.87c0.01-41.72,0.01-83.44,0.02-125.16c0-3.66-0.02-7.32,0.99-10.89c2.26,0.05,4.52,0.1,6.78,0.15
	c0.05,39.94,0.1,79.87,0.16,119.81c0.01,3.33,0.09,6.65,0.15,9.98C313.85,350.42,311.14,352.43,307.98,353.87z"/>
<path class="st11" d="M341.75,324.7c0.89-2.09,2.41-3.68,4.12-5.12C345.58,322.16,344.3,323.94,341.75,324.7z"/>
<path class="st1" d="M154.87,235.81c-2.79-5.68-2.69-11.85-3-17.95c0.12-3.4-0.09-6.84,1.11-10.12c3.1,0.19,5.74-0.83,7.97-2.98
	c3.65,5.2,8.77,7.82,14.95,8.93c13.19,2.38,25.38-0.1,36.75-7.05c4.11-2.51,8.1-5.33,13.29-4.86c3.83,4.98,9.47,7.85,14,12.01
	c-6.87,6.9-12.83,14.81-22.41,18.55c-14.36,5.6-29.11,9.13-44.57,9.43c-3.59-0.68-6.34-2.89-8.74-5.37
	C161.13,233.22,158.21,232.57,154.87,235.81z"/>
<path class="st8" d="M160.95,204.77c-2.23,2.15-4.87,3.16-7.97,2.98c3.92-24.86,18.19-41.46,41.02-51.07
	c5.37-2.26,11.01-3.79,16.92-4.01c4.03-0.15,6.05-2.26,6.02-6.35c-0.03-3.49,0.07-6.99,0.11-10.48c2.31,0.65,4.63,1.29,6.95,1.94
	c0.07,4.94,0.14,9.88,0.21,14.82c-0.81,0.84-1.47,1.98-2.45,2.47c-5.08,2.56-8.52,8.56-14.97,8.06
	c-14.63-1.15-25.63,5.24-34.96,15.74C165.22,186.3,162.71,195.35,160.95,204.77z"/>
<path class="st9" d="M224,137.77c-2.32-0.65-4.63-1.29-6.95-1.94c-0.02-10.35-0.03-20.7-0.05-31.05c4.43-3.22,3.66-9.23,6.99-13.05
	c1.6,6.54,0.8,13.2,0.73,19.79C224.63,120.27,225.67,129.06,224,137.77z"/>
<path class="st13" d="M300.92,217.68c-6.01,0.04-12.02,0.07-18.03,0.11c-0.83-11.26-2.41-22.3-9.08-31.9
	c-0.5-2.13-1.55-3.99-2.93-5.66c-6.99-8.44-14.7-16.01-24.87-20.62c-0.02-0.28-0.04-0.56-0.08-0.84c-1.24-3.48-4.11-5.09-7.28-6.34
	c-4.73-1.86-7.15-5.31-8.44-10.28c-1.99-7.69-2.5-15.4-2.26-23.26c0.16-5.3,1.63-10.16,4.42-14.64c3.46-5.59,5.54-6.39,11.79-4.43
	c1.66,0.52,3.27,0.44,4.92,0.13c2.45-0.46,4.91-0.93,7.37-1.3c6.78-1.03,13.11-1.15,19.84,2.08c7.57,3.62,16.65,2.94,24.63,6.02
	C300.93,143.73,300.92,180.71,300.92,217.68z"/>
<path class="st9" d="M245.94,158.77c0.04,0.28,0.06,0.56,0.08,0.84c0.55,8.01-2.25,15.13-6.95,21.22
	c-5.09,6.6-9.17,13.72-13.13,20.96c-5.19-0.46-9.19,2.35-13.29,4.86c-11.37,6.95-23.55,9.43-36.75,7.05
	c-6.18-1.11-11.29-3.73-14.95-8.93c1.76-9.42,4.27-18.47,10.88-25.91c9.33-10.51,20.33-16.89,34.96-15.74
	c6.45,0.5,9.89-5.5,14.97-8.06c0.98-0.49,1.64-1.63,2.45-2.47C231.94,152.94,238.63,156.95,245.94,158.77z"/>
<path class="st7" d="M154.87,235.81c3.34-3.24,6.26-2.59,9.34,0.6c2.4,2.48,5.15,4.69,8.74,5.37c2.12,2.77,5.27,3.42,8.41,3.82
	c13.25,1.67,25.88-0.76,37.78-6.58c4.05-1.98,7.91-3.33,12.41-2.4c14.62,3.03,27.76,0.2,39.06-9.92c1.1-0.99,2.51-1.64,3.72-2.51
	c2.31-1.67,4.8-2.21,7.56-1.4c-0.87,10.01-3.21,19.56-8.95,28.01c-8.67,2.87-17.38,2.81-26.47,1.99c-7.09-0.64-14.9-1.63-21.6,1.84
	c-10.31,5.35-21.31,5.78-32.43,6.18c-6.95,0.25-13.54-1.02-19.63-4.54c-2.66-1.54-5.47-2.43-8.58-1.54
	C159.32,249.3,156.18,243.01,154.87,235.81z"/>
<path class="st6" d="M164.24,254.71c3.11-0.89,5.92,0,8.58,1.54c6.09,3.52,12.68,4.79,19.63,4.54c11.12-0.39,22.13-0.83,32.43-6.18
	c6.7-3.47,14.51-2.48,21.6-1.84c9.09,0.82,17.8,0.88,26.47-1.99c-9.57,16.98-24.33,26.73-43.09,30.9c-1.62,0.36-3.23,0.76-4.84,1.14
	c-2.76,0.02-5.51,0.04-8.27,0.05c-2.27-0.01-4.54-0.03-6.82-0.04c-9.26-1.91-18.38-4.18-26.45-9.44
	C175.83,268.43,168.58,263.07,164.24,254.71z"/>
<path class="st11" d="M216.74,282.88c2.76-0.02,5.51-0.04,8.27-0.05c0.23,23.2-2.22,46.38-0.59,69.59c0.09,1.31-0.13,2.65-0.25,3.97
	c-0.66,7.75-0.66,7.75-7.04,4.3C217,334.75,216.87,308.81,216.74,282.88z"/>
<path class="st5" d="M281.89,222.78c-2.76-0.81-5.25-0.27-7.56,1.4c-1.21,0.88-2.62,1.53-3.72,2.51
	c-11.3,10.12-24.44,12.95-39.06,9.92c-4.5-0.93-8.36,0.41-12.41,2.4c-11.9,5.82-24.53,8.25-37.78,6.58
	c-3.14-0.4-6.29-1.05-8.41-3.82c15.46-0.3,30.21-3.83,44.57-9.43c9.58-3.73,15.54-11.65,22.41-18.55c3.54-0.8,7.13-1.45,10.62-2.43
	c11.55-3.25,19.49-10.06,21.75-22.4c0.2-1.08,1-2.05,1.51-3.08c6.67,9.6,8.25,20.64,9.08,31.9
	C282.56,219.45,282.23,221.11,281.89,222.78z"/>
<path class="st2" d="M273.81,185.89c-0.52,1.02-1.32,1.99-1.51,3.08c-2.26,12.34-10.2,19.15-21.75,22.4
	c-3.49,0.98-7.08,1.63-10.62,2.43c-4.53-4.16-10.17-7.03-14-12.01c3.96-7.25,8.05-14.36,13.13-20.96c4.7-6.09,7.5-13.21,6.95-21.22
	c10.17,4.61,17.88,12.18,24.87,20.62C272.26,181.9,273.31,183.76,273.81,185.89z"/>
</svg>
