<?xml version="1.0" encoding="utf-8"?>
<!-- Generator: Adobe Illustrator 23.0.1, SVG Export Plug-In . SVG Version: 6.00 Build 0)  -->
<svg version="1.1" id="Warstwa_1" xmlns="http://www.w3.org/2000/svg" xmlns:xlink="http://www.w3.org/1999/xlink" x="0px" y="0px"
	 viewBox="0 0 80 80" style="enable-background:new 0 0 80 80;" xml:space="preserve">
<style type="text/css">
	.st0{fill:#F9F9FA;}
	.st1{fill:#282828;}
</style>
<path class="st0" d="M40,0c11.03,0,20.45,3.9,28.25,11.7C76.08,19.53,80,28.97,80,40s-3.92,20.45-11.75,28.25
	C60.45,76.08,51.03,80,40,80c-11.1,0-20.55-3.92-28.35-11.75C3.88,60.45,0,51.03,0,40s3.88-20.47,11.65-28.3C19.45,3.9,28.9,0,40,0"
	/>
<path class="st1" d="M63.5,31.31l-6.08-6.08c0.43-0.68,0.63-1.47,0.58-2.39h-0.14c0-0.77-0.24-1.47-0.72-2.1l-0.65-0.65
	c-0.72-0.77-1.59-1.23-2.61-1.38c-1.21-0.14-2.15,0.14-2.82,0.87L34.69,36.02c-1.88-1.21-3.86-2-5.94-2.39h-0.22l-3.55-0.14
	c-2.51,0.24-4.63,1.28-6.37,3.11c-1.83,1.69-2.8,3.79-2.9,6.3c-0.19,1.11-0.17,2.34,0.07,3.69v0.07c0.53,3.47,2.2,6.59,5,9.34
	l0.65,0.58c2.65,2.46,5.62,3.98,8.9,4.56c4.1,0.63,7.41-0.39,9.92-3.04c2.61-2.41,3.55-5.67,2.82-9.77l0.07-0.14
	c-0.43-2.22-1.23-4.3-2.39-6.23l5.86-5.94l6.08,6.08c1.21,1.21,2.41,1.21,3.62,0l1.3-1.38l0.22-0.58l-0.14-0.58l-0.94-0.94
	l3.26-3.26l0.94,0.94c0.19,0.19,0.39,0.29,0.58,0.29l0.58-0.36l1.38-1.38C64.71,33.7,64.71,32.52,63.5,31.31z M34.25,52.09
	c-0.63,0.58-1.42,0.8-2.39,0.65l-0.14-0.07c-1.59-0.24-3.02-0.94-4.27-2.1l-0.65-0.58c-1.45-1.5-2.34-3.11-2.68-4.85
	c-0.14-1.06,0.02-1.93,0.51-2.61c0.72-0.53,1.59-0.7,2.61-0.51c1.69,0.34,3.26,1.18,4.71,2.53l0.22,0.22l0.51,0.51
	c1.11,1.35,1.81,2.77,2.1,4.27v0.29C34.91,50.76,34.74,51.51,34.25,52.09z"/>
</svg>
